<svg xmlns="http://www.w3.org/2000/svg" width="50" height="50" viewBox="0 0 50 50" fill="none">
  <path d="M9.76562 40.6248C11.1654 40.6248 12.3617 40.1283 13.3545 39.1355C14.3473 38.1427 14.8438 36.9464 14.8438 35.5466C14.8438 34.1469 14.3473 32.9506 13.3545 31.9578C12.3617 30.9649 11.1654 30.4685 9.76562 30.4685C8.36589 30.4685 7.1696 30.9649 6.17676 31.9578C5.18392 32.9506 4.6875 34.1469 4.6875 35.5466C4.6875 36.9464 5.18392 38.1427 6.17676 39.1355C7.1696 40.1283 8.36589 40.6248 9.76562 40.6248ZM9.76562 32.031C10.7422 32.031 11.5723 32.3728 12.2559 33.0564C12.9395 33.74 13.2812 34.5701 13.2812 35.5466C13.2812 36.5232 12.9395 37.3533 12.2559 38.0369C11.5723 38.7205 10.7422 39.0623 9.76562 39.0623C8.78906 39.0623 7.95898 38.7205 7.27539 38.0369C6.5918 37.3533 6.25 36.5232 6.25 35.5466C6.25 34.5701 6.5918 33.74 7.27539 33.0564C7.95898 32.3728 8.78906 32.031 9.76562 32.031ZM36.8164 41.406C37.6953 41.406 38.4521 41.0886 39.0869 40.4539C39.7217 39.8191 40.0391 39.0623 40.0391 38.1833C40.0391 37.3044 39.7217 36.5476 39.0869 35.9128C38.4521 35.2781 37.6953 34.9607 36.8164 34.9607C35.9375 34.9607 35.1807 35.2781 34.5459 35.9128C33.9111 36.5476 33.5938 37.3044 33.5938 38.1833C33.5938 39.0623 33.9111 39.8191 34.5459 40.4539C35.1807 41.0886 35.9375 41.406 36.8164 41.406ZM36.8164 36.5232C37.2721 36.5232 37.6628 36.686 37.9883 37.0115C38.3138 37.337 38.4766 37.7276 38.4766 38.1833C38.4766 38.6391 38.3138 39.0297 37.9883 39.3552C37.6628 39.6807 37.2721 39.8435 36.8164 39.8435C36.3607 39.8435 35.9701 39.6807 35.6445 39.3552C35.319 39.0297 35.1562 38.6391 35.1562 38.1833C35.1562 37.7276 35.319 37.337 35.6445 37.0115C35.9701 36.686 36.3607 36.5232 36.8164 36.5232ZM44.5312 33.5935H43.75V27.197C43.75 25.96 43.3024 24.894 42.4072 23.9988C41.512 23.1036 40.446 22.656 39.209 22.656H35.1562V19.531C35.1562 19.3031 35.083 19.116 34.9365 18.9695C34.79 18.823 34.6029 18.7498 34.375 18.7498H33.5938V15.283L35.5957 13.9158C35.6934 13.8507 35.7747 13.7611 35.8398 13.6472C35.9049 13.5333 35.9375 13.4112 35.9375 13.281C35.9375 13.0531 35.8643 12.866 35.7178 12.7195C35.5713 12.573 35.3841 12.4998 35.1562 12.4998C35.0586 12.4998 34.9772 12.5079 34.9121 12.5242C34.847 12.5404 34.7819 12.5811 34.7168 12.6462L32.373 14.2087C32.2754 14.2738 32.194 14.3634 32.1289 14.4773C32.0638 14.5912 32.0312 14.7133 32.0312 14.8435V18.7498H31.25C31.0221 18.7498 30.835 18.823 30.6885 18.9695C30.542 19.116 30.4688 19.3031 30.4688 19.531V22.656H28.7109L24.4629 8.54468C24.6257 8.47957 24.7559 8.38192 24.8535 8.25171C24.9512 8.1215 25 7.97502 25 7.81226V6.05444C25 5.46851 24.7884 4.96395 24.3652 4.54077C23.9421 4.1176 23.4375 3.90601 22.8516 3.90601H8.39844C7.8125 3.90601 7.30794 4.1176 6.88477 4.54077C6.46159 4.96395 6.25 5.46851 6.25 6.05444V7.81226C6.25 8.00757 6.30697 8.17033 6.4209 8.30054C6.53483 8.43074 6.67318 8.51213 6.83594 8.54468L3.95508 20.7517L0.195312 25.2927C0.130208 25.3578 0.0813802 25.4311 0.0488281 25.5125C0.016276 25.5938 0 25.6833 0 25.781C0 26.0089 0.0732422 26.196 0.219727 26.3425C0.366211 26.489 0.553385 26.5623 0.78125 26.5623H4.6875C4.78516 26.5623 4.88281 26.5378 4.98047 26.489C5.07812 26.4402 5.15951 26.3832 5.22461 26.3181L6.15234 25.4392L6.68945 26.3181C4.73633 26.9692 3.13314 28.1329 1.87988 29.8093C0.626628 31.4858 0 33.3982 0 35.5466C0 36.9138 0.260417 38.1833 0.78125 39.3552C1.26953 40.5271 1.96126 41.5606 2.85645 42.4558C3.75163 43.351 4.78516 44.0427 5.95703 44.531C7.12891 45.0518 8.39844 45.3123 9.76562 45.3123C11.9792 45.3123 13.9404 44.6531 15.6494 43.3347C17.3584 42.0164 18.5059 40.3481 19.0918 38.3298L19.1406 38.281H29.6875C29.7201 40.2341 30.4281 41.8943 31.8115 43.2615C33.195 44.6287 34.8633 45.3123 36.8164 45.3123C38.7695 45.3123 40.4378 44.6287 41.8213 43.2615C43.2048 41.8943 43.9128 40.2341 43.9453 38.281H44.5312C45.1823 38.281 45.7357 38.0531 46.1914 37.5974C46.6471 37.1417 46.875 36.5883 46.875 35.9373C46.875 35.2862 46.6471 34.7328 46.1914 34.2771C45.7357 33.8214 45.1823 33.5935 44.5312 33.5935ZM39.209 24.2185C40.0228 24.2185 40.7227 24.5115 41.3086 25.0974C41.8945 25.6833 42.1875 26.3832 42.1875 27.197V33.5447C41.5365 32.796 40.7471 32.1938 39.8193 31.738C38.8916 31.2823 37.8906 31.0544 36.8164 31.0544C36.5234 31.0544 36.2305 31.0707 35.9375 31.1033C35.6445 31.1358 35.3678 31.2009 35.1074 31.2986L35.1562 31.2498V24.2185H39.209ZM32.0312 20.3123H33.5938V31.8357C33.3008 31.9985 33.0241 32.1694 32.7637 32.3484C32.5033 32.5274 32.2591 32.7146 32.0312 32.9099V20.3123ZM27.0508 36.7185L25.3906 33.5935H27.3438V36.7185H27.0508ZM5.66406 20.3123L8.44727 8.59351H10.1562V20.3123H5.66406ZM11.7188 8.59351H13.2812V20.3123H11.7188V8.59351ZM14.8438 8.59351H22.8516L27.0508 22.656H25.5859C25.5534 22.656 25.5208 22.656 25.4883 22.656C25.4557 22.656 25.4395 22.656 25.4395 22.656L24.3164 20.9958L24.707 20.7517C24.8047 20.6866 24.8779 20.5971 24.9268 20.4832C24.9756 20.3692 25 20.2472 25 20.1169C25 19.8891 24.9268 19.7019 24.7803 19.5554C24.6338 19.4089 24.4466 19.3357 24.2188 19.3357C24.1211 19.3357 24.0316 19.352 23.9502 19.3845C23.8688 19.4171 23.7956 19.4496 23.7305 19.4822L21.3867 21.24C21.2891 21.3051 21.2158 21.3946 21.167 21.5085C21.1182 21.6225 21.0938 21.7445 21.0938 21.8748C21.0938 22.1026 21.167 22.2898 21.3135 22.4363C21.46 22.5828 21.6471 22.656 21.875 22.656C21.9727 22.656 22.0622 22.6397 22.1436 22.6072C22.2249 22.5746 22.2982 22.5421 22.3633 22.5095L23.0957 21.9724L23.877 23.1931C23.5189 23.4535 23.2259 23.7953 22.998 24.2185C22.7702 24.6417 22.6562 25.0974 22.6562 25.5857V28.3689L18.6523 20.7517C18.5872 20.6215 18.4977 20.5157 18.3838 20.4343C18.2699 20.3529 18.1315 20.3123 17.9688 20.3123H14.8438V8.59351ZM25.5859 24.2185H27.3438V25.781H24.2188V25.5857C24.2188 25.1951 24.349 24.8695 24.6094 24.6091C24.8698 24.3487 25.1953 24.2185 25.5859 24.2185ZM24.2188 27.3435H27.3438V28.906H24.2188V27.3435ZM24.2188 31.3474C24.2188 31.3149 24.2188 31.2904 24.2188 31.2742C24.2188 31.2579 24.2188 31.2498 24.2188 31.2498V30.4685H27.3438V32.031H24.5605L24.2188 31.3474ZM7.8125 6.05444C7.8125 5.89168 7.86947 5.75334 7.9834 5.6394C8.09733 5.52547 8.23568 5.46851 8.39844 5.46851H22.8516C23.0143 5.46851 23.1527 5.52547 23.2666 5.6394C23.3805 5.75334 23.4375 5.89168 23.4375 6.05444V7.03101H7.8125V6.05444ZM1.66016 36.7673L3.61328 35.449C3.74349 35.3513 3.84115 35.2455 3.90625 35.1316C3.97135 35.0177 4.00391 34.8956 4.00391 34.7654C4.00391 34.5701 3.92253 34.391 3.75977 34.2283C3.59701 34.0655 3.41797 33.9841 3.22266 33.9841C3.125 33.9841 3.04362 34.0004 2.97852 34.033C2.91341 34.0655 2.84831 34.0981 2.7832 34.1306L1.61133 34.9119C1.67643 34.0981 1.84733 33.3331 2.12402 32.6169C2.40072 31.9008 2.76693 31.2498 3.22266 30.6638H3.17383L5.51758 31.1521C5.55013 31.1521 5.57454 31.1521 5.59082 31.1521C5.6071 31.1521 5.63151 31.1521 5.66406 31.1521C5.89193 31.1521 6.0791 31.0789 6.22559 30.9324C6.37207 30.7859 6.44531 30.5987 6.44531 30.3708C6.44531 30.1755 6.38835 30.0046 6.27441 29.8582C6.16048 29.7117 6.00586 29.6222 5.81055 29.5896L4.44336 29.3455C4.99674 28.8572 5.62337 28.4503 6.32324 28.1248C7.02311 27.7992 7.7474 27.5714 8.49609 27.4412H8.54492L9.86328 29.4431C9.96094 29.5408 10.0667 29.6222 10.1807 29.6873C10.2946 29.7524 10.4167 29.7849 10.5469 29.7849C10.7422 29.7849 10.9212 29.7117 11.084 29.5652C11.2467 29.4187 11.3281 29.2315 11.3281 29.0037C11.3281 28.906 11.3118 28.8246 11.2793 28.7595C11.2467 28.6944 11.2142 28.6293 11.1816 28.5642L10.4004 27.3923C11.2142 27.4574 11.9792 27.6283 12.6953 27.905C13.4115 28.1817 14.0625 28.5479 14.6484 29.0037L14.1602 31.2986C14.1602 31.3311 14.1602 31.3637 14.1602 31.3962C14.1602 31.4288 14.1602 31.4613 14.1602 31.4939C14.1602 31.6892 14.2334 31.8682 14.3799 32.031C14.5264 32.1938 14.7135 32.2751 14.9414 32.2751C15.1367 32.2751 15.3076 32.21 15.4541 32.0798C15.6006 31.9496 15.6901 31.8031 15.7227 31.6404L15.9668 30.2244C16.4551 30.8103 16.862 31.4451 17.1875 32.1287C17.513 32.8123 17.7409 33.5447 17.8711 34.3259V34.3748L15.8691 35.6931C15.7715 35.7582 15.6901 35.8477 15.625 35.9617C15.5599 36.0756 15.5273 36.1977 15.5273 36.3279C15.5273 36.5557 15.6006 36.7429 15.7471 36.8894C15.8936 37.0359 16.0807 37.1091 16.3086 37.1091C16.3737 37.1091 16.4469 37.101 16.5283 37.0847C16.6097 37.0684 16.6829 37.044 16.748 37.0115L17.9199 36.1814C17.8548 36.9952 17.6839 37.7602 17.4072 38.4763C17.1305 39.1925 16.7643 39.8598 16.3086 40.4783V40.4294L14.0137 39.99C13.9811 39.99 13.9486 39.9819 13.916 39.9656C13.8835 39.9493 13.8509 39.9412 13.8184 39.9412C13.623 39.9412 13.444 40.0225 13.2812 40.1853C13.1185 40.3481 13.0371 40.5271 13.0371 40.7224C13.0371 40.9177 13.1022 41.0886 13.2324 41.2351C13.3626 41.3816 13.5091 41.4711 13.6719 41.5037L15.0879 41.7966C14.502 42.2849 13.8672 42.6837 13.1836 42.9929C12.5 43.3022 11.7676 43.5219 10.9863 43.6521H10.9375L9.61914 41.699C9.55404 41.5688 9.46452 41.4711 9.35059 41.406C9.23665 41.3409 9.11458 41.3083 8.98438 41.3083C8.75651 41.3083 8.56934 41.3897 8.42285 41.5525C8.27637 41.7153 8.20312 41.8943 8.20312 42.0896C8.20312 42.1873 8.21126 42.2686 8.22754 42.3337C8.24382 42.3988 8.26823 42.4639 8.30078 42.5291L9.13086 43.7009C8.31706 43.6358 7.55208 43.4649 6.83594 43.1882C6.11979 42.9115 5.45247 42.5453 4.83398 42.0896L4.88281 42.1384L5.32227 39.7947C5.32227 39.7621 5.3304 39.7377 5.34668 39.7214C5.36296 39.7052 5.37109 39.6807 5.37109 39.6482C5.37109 39.4203 5.28971 39.2332 5.12695 39.0867C4.96419 38.9402 4.78516 38.8669 4.58984 38.8669C4.39453 38.8669 4.22363 38.9239 4.07715 39.0378C3.93066 39.1518 3.84115 39.3064 3.80859 39.5017L3.51562 40.8689C3.02734 40.3155 2.62858 39.6889 2.31934 38.989C2.01009 38.2891 1.79036 37.5649 1.66016 36.8162V36.7673ZM9.76562 25.781C9.50521 25.781 9.25293 25.7973 9.00879 25.8298C8.76465 25.8624 8.51237 25.8949 8.25195 25.9275H8.30078L7.71484 24.9998H15.918L22.1191 36.7185H19.4336C19.4661 36.5557 19.4906 36.3767 19.5068 36.1814C19.5231 35.9861 19.5312 35.7745 19.5312 35.5466C19.5312 34.212 19.2708 32.9425 18.75 31.738C18.2292 30.5662 17.5293 29.5408 16.6504 28.6619C15.7715 27.783 14.7461 27.0831 13.5742 26.5623C12.3698 26.0414 11.1003 25.781 9.76562 25.781ZM23.9258 36.7185L17.0898 23.8767C17.0247 23.7465 16.9352 23.6407 16.8213 23.5593C16.7074 23.4779 16.569 23.4373 16.4062 23.4373H6.25C6.15234 23.4373 6.05469 23.4617 5.95703 23.5105C5.85938 23.5593 5.77799 23.6163 5.71289 23.6814L4.3457 24.9998H2.44141L5.0293 21.8748H17.4805L25.293 36.7185H23.9258ZM28.9062 24.2185H30.4688V34.9607C30.3385 35.2211 30.2165 35.4978 30.1025 35.7908C29.9886 36.0837 29.8991 36.3767 29.834 36.6697V36.7185H28.9062V24.2185ZM31.3965 39.3552L32.373 38.6716C32.4707 38.574 32.5521 38.4763 32.6172 38.3787C32.6823 38.281 32.7148 38.1671 32.7148 38.0369C32.7148 37.809 32.6416 37.6218 32.4951 37.4753C32.3486 37.3289 32.1615 37.2556 31.9336 37.2556C31.8685 37.2556 31.7952 37.2638 31.7139 37.28C31.6325 37.2963 31.5592 37.3207 31.4941 37.3533L31.2988 37.4998C31.3639 37.0766 31.4697 36.6697 31.6162 36.2791C31.7627 35.8884 31.9499 35.5141 32.1777 35.156H32.1289L33.3496 35.4001C33.3822 35.4001 33.4066 35.4001 33.4229 35.4001C33.4391 35.4001 33.4635 35.4001 33.4961 35.4001C33.724 35.4001 33.9111 35.3269 34.0576 35.1804C34.2041 35.0339 34.2773 34.8468 34.2773 34.6189C34.2773 34.4236 34.2122 34.2527 34.082 34.1062C33.9518 33.9597 33.8053 33.8702 33.6426 33.8376L33.3984 33.7888C33.724 33.561 34.0658 33.3575 34.4238 33.1785C34.7819 32.9994 35.1725 32.8611 35.5957 32.7634H35.6445L36.3281 33.7888C36.4258 33.8865 36.5234 33.9679 36.6211 34.033C36.7188 34.0981 36.8327 34.1306 36.9629 34.1306C37.1908 34.1306 37.3779 34.0492 37.5244 33.8865C37.6709 33.7237 37.7441 33.5447 37.7441 33.3494C37.7441 33.2517 37.736 33.1622 37.7197 33.0808C37.7034 32.9994 37.679 32.9262 37.6465 32.8611L37.5 32.6658C37.9232 32.7309 38.3301 32.8367 38.7207 32.9832C39.1113 33.1296 39.4857 33.3168 39.8438 33.5447L39.5996 34.7166C39.5996 34.7491 39.5996 34.7817 39.5996 34.8142C39.5996 34.8468 39.5996 34.863 39.5996 34.863C39.5996 35.0909 39.6729 35.2781 39.8193 35.4246C39.9658 35.571 40.153 35.6443 40.3809 35.6443C40.5762 35.6443 40.7471 35.5873 40.8936 35.4734C41.04 35.3595 41.1296 35.2048 41.1621 35.0095L41.2109 34.7654C41.4388 35.0909 41.6423 35.4408 41.8213 35.8152C42.0003 36.1895 42.1387 36.572 42.2363 36.9626V37.0115L41.2109 37.7439C41.1133 37.809 41.0319 37.8985 40.9668 38.0125C40.9017 38.1264 40.8691 38.2485 40.8691 38.3787C40.8691 38.574 40.9505 38.753 41.1133 38.9158C41.276 39.0785 41.4551 39.1599 41.6504 39.1599C41.748 39.1599 41.8376 39.1436 41.9189 39.1111C42.0003 39.0785 42.0736 39.046 42.1387 39.0134L42.334 38.8669C42.2689 39.3227 42.1631 39.7458 42.0166 40.1365C41.8701 40.5271 41.6829 40.8852 41.4551 41.2107L40.2832 40.9666C40.2507 40.9666 40.2262 40.9666 40.21 40.9666C40.1937 40.9666 40.1693 40.9666 40.1367 40.9666C39.9089 40.9666 39.7217 41.0479 39.5752 41.2107C39.4287 41.3735 39.3555 41.5525 39.3555 41.7478C39.3555 41.9431 39.4124 42.114 39.5264 42.2605C39.6403 42.407 39.7949 42.4965 39.9902 42.5291L40.2344 42.5779C39.9089 42.8057 39.5589 43.0092 39.1846 43.1882C38.8102 43.3673 38.4277 43.5056 38.0371 43.6033H37.9883L37.2559 42.6267C37.1908 42.5291 37.1012 42.4477 36.9873 42.3826C36.8734 42.3175 36.7513 42.2849 36.6211 42.2849C36.4258 42.2849 36.2467 42.3582 36.084 42.5046C35.9212 42.6511 35.8398 42.8383 35.8398 43.0662C35.8398 43.1313 35.8561 43.2045 35.8887 43.2859C35.9212 43.3673 35.9538 43.4405 35.9863 43.5056L36.1328 43.7009C35.6771 43.6358 35.2539 43.53 34.8633 43.3835C34.4727 43.2371 34.1146 43.0499 33.7891 42.822V42.8708L34.0332 41.6501C34.0332 41.6176 34.0332 41.5932 34.0332 41.5769C34.0332 41.5606 34.0332 41.5362 34.0332 41.5037C34.0332 41.3083 33.9518 41.1293 33.7891 40.9666C33.6263 40.8038 33.4473 40.7224 33.252 40.7224C33.0566 40.7224 32.8857 40.7875 32.7393 40.9177C32.5928 41.0479 32.5033 41.1944 32.4707 41.3572L32.4219 41.6013C32.194 41.3083 31.9906 40.9747 31.8115 40.6003C31.6325 40.226 31.4941 39.8272 31.3965 39.4041V39.3552ZM44.5312 36.7185H43.7988C43.7337 36.4255 43.6523 36.1488 43.5547 35.8884C43.457 35.628 43.3431 35.3676 43.2129 35.1072L43.2617 35.156H44.5312C44.7591 35.156 44.9463 35.2292 45.0928 35.3757C45.2393 35.5222 45.3125 35.7094 45.3125 35.9373C45.3125 36.1651 45.2393 36.3523 45.0928 36.4988C44.9463 36.6453 44.7591 36.7185 44.5312 36.7185ZM37.5 28.906C37.7279 28.906 37.915 28.8328 38.0615 28.6863C38.208 28.5398 38.2812 28.3526 38.2812 28.1248V26.5623C38.2812 26.3344 38.208 26.1472 38.0615 26.0007C37.915 25.8542 37.7279 25.781 37.5 25.781C37.2721 25.781 37.085 25.8542 36.9385 26.0007C36.792 26.1472 36.7188 26.3344 36.7188 26.5623V28.1248C36.7188 28.3526 36.792 28.5398 36.9385 28.6863C37.085 28.8328 37.2721 28.906 37.5 28.906ZM39.8438 28.906C40.0716 28.906 40.2588 28.8328 40.4053 28.6863C40.5518 28.5398 40.625 28.3526 40.625 28.1248V26.5623C40.625 26.3344 40.5518 26.1472 40.4053 26.0007C40.2588 25.8542 40.0716 25.781 39.8438 25.781C39.6159 25.781 39.4287 25.8542 39.2822 26.0007C39.1357 26.1472 39.0625 26.3344 39.0625 26.5623V28.1248C39.0625 28.3526 39.1357 28.5398 39.2822 28.6863C39.4287 28.8328 39.6159 28.906 39.8438 28.906Z" fill="white"/>
</svg>