<svg xmlns="http://www.w3.org/2000/svg" width="50" height="50" viewBox="0 0 50 50" fill="none">
  <g clip-path="url(#clip0_1_2110)">
    <path d="M7.27539 32.5681C7.60091 32.8936 7.96712 33.1459 8.37402 33.325C8.78092 33.504 9.22852 33.5935 9.7168 33.5935H10.5957C11.084 33.5935 11.5316 33.504 11.9385 33.325C12.3454 33.1459 12.7116 32.8936 13.0371 32.5681C13.3626 32.2426 13.6149 31.8764 13.7939 31.4695C13.973 31.0626 14.0625 30.615 14.0625 30.1267C14.0625 29.4106 13.9811 28.7026 13.8184 28.0027C13.6556 27.3028 13.4115 26.6274 13.0859 25.9763L10.8398 21.533C10.7096 21.2725 10.4818 21.1423 10.1562 21.1423C9.83073 21.1423 9.60286 21.2725 9.47266 21.533L7.22656 25.9763C6.90104 26.6274 6.6569 27.3028 6.49414 28.0027C6.33138 28.7026 6.25 29.4106 6.25 30.1267C6.25 30.615 6.33952 31.0626 6.51855 31.4695C6.69759 31.8764 6.94987 32.2426 7.27539 32.5681ZM8.64258 26.6599L10.1562 23.6326L11.6699 26.6599C11.9303 27.2133 12.1338 27.783 12.2803 28.3689C12.4268 28.9548 12.5 29.5408 12.5 30.1267C12.5 30.3871 12.4512 30.6313 12.3535 30.8591C12.2559 31.087 12.1257 31.2986 11.9629 31.4939C11.7676 31.6567 11.556 31.7869 11.3281 31.8845C11.1003 31.9822 10.8561 32.031 10.5957 32.031H9.7168C9.45638 32.031 9.21224 31.9822 8.98438 31.8845C8.75651 31.7869 8.54492 31.6567 8.34961 31.4939C8.18685 31.2986 8.05664 31.087 7.95898 30.8591C7.86133 30.6313 7.8125 30.3871 7.8125 30.1267C7.8125 29.5408 7.88574 28.9548 8.03223 28.3689C8.17871 27.783 8.38216 27.2133 8.64258 26.6599ZM34.375 33.5935H35.9375V41.406H34.375V33.5935ZM34.375 42.9685H35.9375V44.531H34.375V42.9685ZM46.0938 41.406H39.0625V21.8748C39.0625 21.6469 38.9893 21.4597 38.8428 21.3132C38.6963 21.1667 38.5091 21.0935 38.2812 21.0935H26.5625V9.37476C26.5625 9.2771 26.5462 9.17944 26.5137 9.08179C26.4811 8.98413 26.416 8.90275 26.3184 8.83765L23.4375 5.90796V1.56226C23.4375 1.33439 23.3643 1.14722 23.2178 1.00073C23.0713 0.854248 22.8841 0.781006 22.6562 0.781006H3.90625C3.67839 0.781006 3.49121 0.854248 3.34473 1.00073C3.19824 1.14722 3.125 1.33439 3.125 1.56226V5.90796L0.244141 8.83765C0.146484 8.90275 0.0813802 8.98413 0.0488281 9.08179C0.016276 9.17944 0 9.2771 0 9.37476V45.3123C0 45.5401 0.0732422 45.7273 0.219727 45.8738C0.366211 46.0203 0.553385 46.0935 0.78125 46.0935H21.9727C22.1354 46.9724 22.5749 47.713 23.291 48.3152C24.0072 48.9174 24.8372 49.2185 25.7812 49.2185H41.4062C42.0573 49.2185 42.6107 48.9906 43.0664 48.5349C43.5221 48.0792 43.75 47.5258 43.75 46.8748C43.75 46.6469 43.8232 46.4597 43.9697 46.3132C44.1162 46.1667 44.3034 46.0935 44.5312 46.0935H46.0938C46.7448 46.0935 47.2982 45.8656 47.7539 45.4099C48.2096 44.9542 48.4375 44.4008 48.4375 43.7498C48.4375 43.0987 48.2096 42.5453 47.7539 42.0896C47.2982 41.6339 46.7448 41.406 46.0938 41.406ZM37.5 29.4919C37.207 29.2966 36.9059 29.1501 36.5967 29.0525C36.2874 28.9548 35.9538 28.906 35.5957 28.906H34.7168C34.2285 28.906 33.7809 28.9955 33.374 29.1746C32.9671 29.3536 32.6009 29.6059 32.2754 29.9314C32.0801 30.0942 31.8685 30.2244 31.6406 30.322C31.4128 30.4197 31.1686 30.4685 30.9082 30.4685H30.0293C29.7689 30.4685 29.5247 30.4197 29.2969 30.322C29.069 30.2244 28.8574 30.0942 28.6621 29.9314C28.3366 29.6059 27.9704 29.3536 27.5635 29.1746C27.1566 28.9955 26.709 28.906 26.2207 28.906H25.3418C24.9837 28.906 24.6501 28.9548 24.3408 29.0525C24.0316 29.1501 23.7305 29.2966 23.4375 29.4919V22.656H37.5V29.4919ZM25 21.0935H22.6562C22.4284 21.0935 22.2412 21.1667 22.0947 21.3132C21.9482 21.4597 21.875 21.6469 21.875 21.8748V44.531H20.3125V9.71655L22.6562 7.3728L25 9.71655V21.0935ZM4.24805 7.03101H20.752L19.1895 8.59351H2.68555L4.24805 7.03101ZM18.75 10.156V16.406H1.5625V10.156H18.75ZM18.75 17.9685V36.7185H1.5625V17.9685H18.75ZM4.6875 2.34351H21.875V5.46851H4.6875V2.34351ZM1.5625 44.531V38.281H18.75V44.531H1.5625ZM25.7812 47.656C25.1302 47.656 24.5768 47.4281 24.1211 46.9724C23.6654 46.5167 23.4375 45.9633 23.4375 45.3123V31.5916L23.9746 31.0056C24.1699 30.8429 24.3815 30.7126 24.6094 30.615C24.8372 30.5173 25.0814 30.4685 25.3418 30.4685H26.2207C26.4811 30.4685 26.7253 30.5173 26.9531 30.615C27.181 30.7126 27.3926 30.8429 27.5879 31.0056C27.9134 31.3311 28.2796 31.5834 28.6865 31.7625C29.0934 31.9415 29.541 32.031 30.0293 32.031H30.9082C31.3965 32.031 31.8441 31.9415 32.251 31.7625C32.6579 31.5834 33.0241 31.3311 33.3496 31.0056C33.5449 30.8429 33.7565 30.7126 33.9844 30.615C34.2122 30.5173 34.4564 30.4685 34.7168 30.4685H35.5957C35.8561 30.4685 36.1003 30.5173 36.3281 30.615C36.556 30.7126 36.7676 30.8429 36.9629 31.0056L37.5 31.5916V45.3123C37.5 45.9633 37.2721 46.5167 36.8164 46.9724C36.3607 47.4281 35.8073 47.656 35.1562 47.656H25.7812ZM46.0938 44.531H44.5312C43.8802 44.531 43.3268 44.7589 42.8711 45.2146C42.4154 45.6703 42.1875 46.2237 42.1875 46.8748C42.1875 47.1026 42.1143 47.2898 41.9678 47.4363C41.8213 47.5828 41.6341 47.656 41.4062 47.656H38.2812C38.5091 47.3305 38.6963 46.9724 38.8428 46.5818C38.9893 46.1912 39.0625 45.768 39.0625 45.3123V42.9685H46.0938C46.3216 42.9685 46.5088 43.0417 46.6553 43.1882C46.8018 43.3347 46.875 43.5219 46.875 43.7498C46.875 43.9776 46.8018 44.1648 46.6553 44.3113C46.5088 44.4578 46.3216 44.531 46.0938 44.531Z" fill="white"/>
  </g>
  <defs>
    <clipPath id="clip0_1_2110">
      <rect width="50" height="50" fill="white" transform="matrix(1 0 0 -1 0 49.9998)"/>
    </clipPath>
  </defs>
</svg>