<svg xmlns="http://www.w3.org/2000/svg" width="50" height="51" viewBox="0 0 50 51" fill="none">
  <g clip-path="url(#clip0_1_2084)">
    <path d="M40.918 49.157C40.2018 48.6361 39.4368 48.1804 38.623 47.7898C37.8092 47.3992 36.9954 47.0574 36.1816 46.7644C34.6842 46.1785 32.6986 45.6088 30.2246 45.0554C27.7507 44.502 24.8047 44.2091 21.3867 44.1765C21.4518 43.6882 21.5576 43.1186 21.7041 42.4675C21.8506 41.8165 22.0703 41.1003 22.3633 40.3191C22.6888 39.5704 23.055 38.8624 23.4619 38.1951C23.8688 37.5278 24.3327 36.8848 24.8535 36.2664C25.1139 36.364 25.5371 36.4942 26.123 36.657C26.709 36.8197 27.4251 36.9011 28.2715 36.9011C29.0202 36.9011 29.8421 36.7872 30.7373 36.5593C31.6325 36.3315 32.5521 35.892 33.4961 35.241C35.7422 33.711 36.9954 32.0183 37.2559 30.1628C37.5163 28.3074 37.6465 27.3145 37.6465 27.1843C37.6465 27.0541 37.6058 26.9402 37.5244 26.8425C37.443 26.7449 37.3372 26.6635 37.207 26.5984C37.1745 26.5984 37.0117 26.5333 36.7188 26.4031C36.4258 26.2729 36.0352 26.1589 35.5469 26.0613C35.9375 25.4102 36.2793 24.7429 36.5723 24.0593C36.8652 23.3757 37.1094 22.6596 37.3047 21.9109C37.4349 21.4552 37.264 21.1703 36.792 21.0564C36.32 20.9425 36.0189 21.1134 35.8887 21.5691C35.6934 22.3503 35.4248 23.099 35.083 23.8152C34.7412 24.5313 34.3424 25.2149 33.8867 25.866C33.1055 25.866 32.2266 25.9799 31.25 26.2078C30.2734 26.4356 29.2806 26.9076 28.2715 27.6238C27.5228 28.1446 26.8962 28.7143 26.3916 29.3328C25.887 29.9513 25.4883 30.5697 25.1953 31.1882C24.5443 31.2533 23.9502 31.2778 23.4131 31.2615C22.876 31.2452 22.4284 31.2208 22.0703 31.1882C22.4284 30.6674 22.9329 30.0164 23.584 29.2351C24.235 28.4213 24.9919 27.5668 25.8545 26.6716C26.7171 25.7764 27.653 24.8894 28.6621 24.0105C29.6712 23.1641 30.7129 22.4154 31.7871 21.7644C32.2103 21.5365 32.2998 21.211 32.0557 20.7878C31.8115 20.3647 31.4779 20.267 31.0547 20.4949C28.9388 21.7319 27.0101 23.2862 25.2686 25.158C23.527 27.0297 22.2168 28.5515 21.3379 29.7234C21.2728 28.5841 21.4437 27.1029 21.8506 25.28C22.2575 23.4571 23.3073 21.7156 25 20.0554C26.0742 18.9486 27.2624 18.0779 28.5645 17.4431C29.8665 16.8083 31.25 16.4096 32.7148 16.2468C33.4961 16.1817 34.1797 16.1736 34.7656 16.2224C35.3516 16.2712 35.8073 16.3119 36.1328 16.3445C36.1654 16.5398 36.1979 16.7921 36.2305 17.1013C36.263 17.4106 36.2793 17.7605 36.2793 18.1511C36.2793 18.6069 36.5234 18.8347 37.0117 18.8347C37.5 18.8347 37.7441 18.5906 37.7441 18.1023C37.7441 17.3536 37.6953 16.7514 37.5977 16.2957C37.5 15.8399 37.4512 15.5958 37.4512 15.5632C37.4186 15.433 37.3535 15.3272 37.2559 15.2458C37.1582 15.1645 37.0605 15.0912 36.9629 15.0261C36.8978 15.0261 36.4665 14.961 35.6689 14.8308C34.8714 14.7006 33.8542 14.6843 32.6172 14.782C31.4779 14.9122 30.127 15.2703 28.5645 15.8562C27.002 16.4421 25.4557 17.5001 23.9258 19.03C23.7956 19.1602 23.6735 19.2823 23.5596 19.3962C23.4456 19.5102 23.3398 19.6322 23.2422 19.7625C23.4375 19.144 23.6491 18.4929 23.877 17.8093C24.1048 17.1257 24.3327 16.4421 24.5605 15.7585C25.2116 15.5632 26.1963 15.0505 27.5146 14.2205C28.833 13.3904 29.8503 11.95 30.5664 9.89917C31.4453 7.32756 31.4453 5.21981 30.5664 3.57593C29.6875 1.93205 29.2155 1.06128 29.1504 0.963623C29.0527 0.865967 28.9469 0.800861 28.833 0.768311C28.7191 0.73576 28.597 0.719482 28.4668 0.719482C28.3691 0.752033 27.4658 1.13452 25.7568 1.86694C24.0479 2.59937 22.7376 4.26766 21.8262 6.87183C21.0775 9.02026 21.0205 10.8757 21.6553 12.4382C22.29 14.0007 22.7702 14.9936 23.0957 15.4167C22.9004 16.0678 22.6969 16.7107 22.4854 17.3455C22.2738 17.9802 22.0703 18.5906 21.875 19.1765C21.7448 18.2 21.46 17.142 21.0205 16.0027C20.5811 14.8634 19.9219 13.7403 19.043 12.6335C17.7083 10.9408 16.3005 9.71199 14.8193 8.94702C13.3382 8.18205 12.0443 7.66935 10.9375 7.40894C9.70052 7.14852 8.68327 7.04272 7.88574 7.09155C7.08822 7.14038 6.67318 7.16479 6.64062 7.16479C6.51042 7.19735 6.38835 7.25431 6.27441 7.33569C6.16048 7.41707 6.08724 7.50659 6.05469 7.60425C6.05469 7.6368 5.96517 7.94604 5.78613 8.53198C5.6071 9.11792 5.46875 9.88289 5.37109 10.8269C5.33854 11.3152 5.56641 11.5756 6.05469 11.6082C6.54297 11.6407 6.80339 11.4291 6.83594 10.9734C6.86849 10.42 6.93359 9.93986 7.03125 9.53296C7.12891 9.12606 7.21029 8.80867 7.27539 8.58081C7.60091 8.54826 8.05664 8.54826 8.64258 8.58081C9.22852 8.61336 9.89583 8.71102 10.6445 8.87378C12.1094 9.1993 13.444 9.75269 14.6484 10.5339C15.8529 11.3152 16.9434 12.3243 17.9199 13.5613C18.7988 14.7006 19.4661 15.9376 19.9219 17.2722C20.3776 18.6069 20.5892 20.0229 20.5566 21.5203C20.5566 22.0085 20.5322 22.4561 20.4834 22.863C20.4346 23.2699 20.3776 23.6361 20.3125 23.9617C18.8802 21.2598 17.3503 18.9893 15.7227 17.1501C14.0951 15.311 13.2324 14.3425 13.1348 14.2449C12.8092 13.9194 12.4756 13.9275 12.1338 14.2693C11.792 14.6111 11.7839 14.9447 12.1094 15.2703C12.1094 15.3028 12.9395 16.255 14.5996 18.1267C16.2598 19.9985 17.7897 22.269 19.1895 24.9382C18.8639 24.9382 18.4896 24.9138 18.0664 24.865C17.6432 24.8162 17.1875 24.7429 16.6992 24.6453C15.2669 24.3197 13.9567 23.7826 12.7686 23.0339C11.5804 22.2852 10.5143 21.3087 9.57031 20.1042C8.91927 19.2904 8.38216 18.4278 7.95898 17.5164C7.53581 16.6049 7.22656 15.6609 7.03125 14.6843C6.93359 14.196 6.64876 14.0007 6.17676 14.0984C5.70475 14.196 5.51758 14.489 5.61523 14.9773C5.8431 16.0515 6.19303 17.1013 6.66504 18.1267C7.13704 19.1521 7.73112 20.1205 8.44727 21.032C9.74935 22.6921 11.1328 23.8884 12.5977 24.6208C14.0625 25.3533 15.3483 25.8497 16.4551 26.1101C17.0085 26.2078 17.57 26.2891 18.1396 26.3542C18.7093 26.4194 19.2871 26.4356 19.873 26.4031V38.7566C19.7428 38.4962 19.6208 38.252 19.5068 38.0242C19.3929 37.7963 19.2708 37.5847 19.1406 37.3894C19.1732 36.9662 19.0592 35.713 18.7988 33.6296C18.5384 31.5463 17.2363 29.5769 14.8926 27.7214C12.3535 25.7032 9.98535 24.8731 7.78809 25.2312C5.59082 25.5893 4.42708 25.7846 4.29688 25.8171C4.19922 25.8822 4.1097 25.9636 4.02832 26.0613C3.94694 26.1589 3.88997 26.2729 3.85742 26.4031C3.82487 26.5007 3.89811 27.6645 4.07715 29.8943C4.25619 32.1241 5.63151 34.2481 8.20312 36.2664C9.375 37.2104 10.5632 37.8451 11.7676 38.1707C12.972 38.4962 14.0625 38.6589 15.0391 38.6589C15.6576 38.6589 16.2272 38.6182 16.748 38.5369C17.2689 38.4555 17.6758 38.366 17.9688 38.2683C18.4896 39.1798 18.9046 40.1238 19.2139 41.1003C19.5231 42.0769 19.7103 43.1023 19.7754 44.1765C17.8874 44.2091 16.0645 44.3311 14.3066 44.5427C12.5488 44.7543 10.8724 45.0554 9.27734 45.446C8.82161 45.5763 8.65072 45.8774 8.76465 46.3494C8.87858 46.8214 9.16341 47.0085 9.61914 46.9109C11.1816 46.5203 12.8174 46.2192 14.5264 46.0076C16.2354 45.796 18.0176 45.6739 19.873 45.6414V47.3015C19.873 47.7898 20.1172 48.0339 20.6055 48.0339C21.0938 48.0339 21.3379 47.7898 21.3379 47.3015V45.6414C23.4863 45.6414 25.4395 45.7716 27.1973 46.032C28.9876 46.2924 30.5827 46.6016 31.9824 46.9597C33.3822 47.3178 34.6029 47.6921 35.6445 48.0828C36.6862 48.5059 37.5488 48.8966 38.2324 49.2546H3.22266C3.58073 49.0593 3.98763 48.8559 4.44336 48.6443C4.89909 48.4327 5.41992 48.2292 6.00586 48.0339C6.42904 47.8712 6.55924 47.5619 6.39648 47.1062C6.23372 46.6505 5.92448 46.504 5.46875 46.6667C4.55729 46.9923 3.77604 47.3259 3.125 47.6677C2.47396 48.0095 1.95312 48.2944 1.5625 48.5222C0.78125 48.9779 0.325521 49.3035 0.195312 49.4988C0.0651042 49.6941 0 49.8569 0 49.9871C0 50.1824 0.0732422 50.3533 0.219727 50.4998C0.366211 50.6462 0.537109 50.7195 0.732422 50.7195H40.7715C41.3574 50.7195 41.5934 50.5079 41.4795 50.0847C41.3656 49.6615 41.1784 49.3523 40.918 49.157ZM29.1016 28.8445C30.6315 27.7703 32.0638 27.2738 33.3984 27.3552C34.7331 27.4366 35.6608 27.575 36.1816 27.7703C36.1491 28.3236 35.9375 29.2432 35.5469 30.5291C35.1562 31.8149 34.196 32.9786 32.666 34.0203C31.2988 34.9968 29.9967 35.4688 28.7598 35.4363C27.5228 35.4037 26.5951 35.2898 25.9766 35.0945C26.6927 34.4434 27.4902 33.8331 28.3691 33.2634C29.248 32.6938 30.2083 32.1973 31.25 31.7742C31.6732 31.5789 31.7871 31.2533 31.5918 30.7976C31.3965 30.3419 31.0872 30.2117 30.6641 30.407C29.7201 30.7976 28.8656 31.2289 28.1006 31.7009C27.3356 32.1729 26.6439 32.6694 26.0254 33.1902C26.1882 32.5066 26.5055 31.766 26.9775 30.9685C27.4495 30.171 28.1576 29.463 29.1016 28.8445ZM23.584 32.7507C23.7467 32.7507 23.9176 32.7426 24.0967 32.7263C24.2757 32.71 24.4466 32.7019 24.6094 32.7019C24.4792 33.1251 24.3896 33.5157 24.3408 33.8738C24.292 34.2319 24.2676 34.5411 24.2676 34.8015C23.5514 35.5177 22.9574 36.2501 22.4854 36.9988C22.0133 37.7475 21.6309 38.4636 21.3379 39.1472V32.5554C21.5658 32.588 21.875 32.6287 22.2656 32.6775C22.6562 32.7263 23.0957 32.7507 23.584 32.7507ZM23.1934 7.36011C23.8118 5.56974 24.6826 4.31649 25.8057 3.60034C26.9287 2.8842 27.7507 2.44474 28.2715 2.28198C28.597 2.73771 28.9795 3.60034 29.4189 4.86987C29.8584 6.1394 29.7689 7.65308 29.1504 9.41089C28.6947 10.7455 28.0762 11.7628 27.2949 12.4626C26.5137 13.1625 25.7975 13.6589 25.1465 13.9519C25.6348 12.5522 26.0986 11.2257 26.5381 9.97241C26.9775 8.71916 27.3763 7.66935 27.7344 6.823C27.8971 6.39982 27.7507 6.09058 27.2949 5.89526C26.8392 5.69995 26.5299 5.83016 26.3672 6.28589C26.0091 7.13224 25.6022 8.20646 25.1465 9.50854C24.6908 10.8106 24.2188 12.1941 23.7305 13.6589C23.3724 13.0079 23.0794 12.1371 22.8516 11.0466C22.6237 9.95613 22.7376 8.72729 23.1934 7.36011ZM9.08203 35.1433C8.17057 34.3946 7.41374 33.5564 6.81152 32.6287C6.20931 31.7009 5.77799 30.6837 5.51758 29.5769C5.38737 29.0235 5.31413 28.5271 5.29785 28.0876C5.28158 27.6482 5.27344 27.2983 5.27344 27.0378C5.89193 26.8751 7.04753 26.7774 8.74023 26.7449C10.4329 26.7123 12.1908 27.4122 14.0137 28.8445C14.9251 29.5606 15.6657 30.3826 16.2354 31.3103C16.805 32.238 17.2201 33.2553 17.4805 34.3621C17.513 34.5248 17.5456 34.6794 17.5781 34.8259C17.6107 34.9724 17.627 35.1108 17.627 35.241C17.3991 34.948 17.1631 34.6713 16.9189 34.4109C16.6748 34.1505 16.4225 33.9063 16.1621 33.6785C14.9251 32.5066 13.7777 31.6521 12.7197 31.115C11.6618 30.5779 11.1003 30.3093 11.0352 30.3093C10.612 30.114 10.3109 30.2442 10.1318 30.7C9.9528 31.1557 10.0749 31.4812 10.498 31.6765C10.5306 31.6765 11.027 31.9207 11.9873 32.4089C12.9476 32.8972 14.0137 33.6785 15.1855 34.7527C15.5436 35.1108 15.8854 35.477 16.2109 35.8513C16.5365 36.2257 16.8457 36.6082 17.1387 36.9988C16.3249 37.1615 15.1693 37.1941 13.6719 37.0964C12.1745 36.9988 10.6445 36.3477 9.08203 35.1433Z" fill="white"/>
  </g>
  <defs>
    <clipPath id="clip0_1_2084">
      <rect width="50" height="50" fill="white" transform="matrix(1 0 0 -1 0 50.7195)"/>
    </clipPath>
  </defs>
</svg>