<svg xmlns="http://www.w3.org/2000/svg" width="50" height="50" viewBox="0 0 50 50" fill="none">
  <g clip-path="url(#clip0_1_2097)">
    <path d="M48.4375 28.0759C48.4375 26.3832 48.0469 24.7719 47.2656 23.2419C46.4844 21.712 45.4102 20.4262 44.043 19.3845C43.75 19.1892 43.4326 19.0346 43.0908 18.9207C42.749 18.8067 42.3991 18.7498 42.041 18.7498C41.6178 18.7498 41.2028 18.8311 40.7959 18.9939C40.389 19.1567 40.0391 19.3845 39.7461 19.6775C39.681 19.6449 39.624 19.6042 39.5752 19.5554C39.5264 19.5066 39.4694 19.4659 39.4043 19.4333C39.209 19.238 38.9811 19.0916 38.7207 18.9939C38.4603 18.8962 38.1999 18.8311 37.9395 18.7986L38.2812 15.0388C38.2812 14.9737 38.2812 14.9167 38.2812 14.8679C38.2812 14.8191 38.2812 14.7784 38.2812 14.7458C38.2812 13.8995 37.9883 13.1833 37.4023 12.5974C36.8164 12.0115 36.1003 11.7185 35.2539 11.7185H35.0586C34.2122 11.7185 33.4961 12.0115 32.9102 12.5974C32.3242 13.1833 32.0312 13.8995 32.0312 14.7458C32.0312 14.7784 32.0312 14.8191 32.0312 14.8679C32.0312 14.9167 32.0312 14.9737 32.0312 15.0388L32.373 18.7986C32.1452 18.8637 31.9092 18.9451 31.665 19.0427C31.4209 19.1404 31.2012 19.2543 31.0059 19.3845C30.9408 19.4496 30.8757 19.5147 30.8105 19.5798C30.7454 19.6449 30.6803 19.6938 30.6152 19.7263C30.5827 19.6938 30.5501 19.6612 30.5176 19.6287C30.485 19.5961 30.4362 19.5636 30.3711 19.531C30.4036 19.4008 30.4281 19.2706 30.4443 19.1404C30.4606 19.0102 30.4688 18.88 30.4688 18.7498C30.4688 18.2615 30.3955 17.7813 30.249 17.3093C30.1025 16.8373 29.8828 16.406 29.5898 16.0154C29.8828 15.6248 30.1025 15.1934 30.249 14.7214C30.3955 14.2494 30.4688 13.7693 30.4688 13.281C30.4688 11.9464 29.9805 10.8152 29.0039 9.88745C28.0273 8.95972 26.8555 8.5284 25.4883 8.59351C25.2604 7.87736 24.8698 7.25887 24.3164 6.73804C23.763 6.21721 23.1283 5.85913 22.4121 5.66382C21.9238 5.07788 21.3379 4.63029 20.6543 4.32104C19.9707 4.0118 19.2383 3.87346 18.457 3.90601C18.1315 2.99455 17.57 2.24585 16.7725 1.65991C15.9749 1.07397 15.0716 0.781006 14.0625 0.781006C13.2161 0.781006 12.4349 0.992596 11.7188 1.41577C11.0026 1.83895 10.4329 2.40861 10.0098 3.12476C8.9681 3.15731 8.04036 3.50724 7.22656 4.17456C6.41276 4.84188 5.87565 5.66382 5.61523 6.64038C4.41081 7.09611 3.43424 7.86108 2.68555 8.9353C1.93685 10.0095 1.5625 11.1977 1.5625 12.4998C1.5625 13.5414 1.80664 14.518 2.29492 15.4294C2.7832 16.3409 3.45052 17.0896 4.29688 17.6755C4.16667 17.9685 4.06901 18.2696 4.00391 18.5789C3.9388 18.8881 3.90625 19.2055 3.90625 19.531C3.90625 20.2472 4.05273 20.9145 4.3457 21.533C4.63867 22.1514 5.06185 22.6886 5.61523 23.1443C5.55013 23.307 5.50944 23.4779 5.49316 23.657C5.47689 23.836 5.46875 24.0232 5.46875 24.2185C5.46875 25.4229 5.86751 26.4646 6.66504 27.3435C7.46256 28.2224 8.43099 28.727 9.57031 28.8572L11.3281 33.6912C10.8724 34.0167 10.4574 34.3829 10.083 34.7898C9.70866 35.1967 9.375 35.6443 9.08203 36.1326L5.0293 35.2048C4.93164 35.2048 4.84212 35.1967 4.76074 35.1804C4.67936 35.1641 4.60612 35.156 4.54102 35.156C3.92253 35.156 3.40169 35.3676 2.97852 35.7908C2.55534 36.2139 2.34375 36.7348 2.34375 37.3533V37.6462C2.34375 37.7764 2.35189 37.8904 2.36816 37.988C2.38444 38.0857 2.40885 38.1833 2.44141 38.281H2.34375C1.69271 38.281 1.13932 38.5089 0.683594 38.9646C0.227865 39.4203 0 39.9737 0 40.6248C0 41.2758 0.227865 41.8292 0.683594 42.2849C1.13932 42.7406 1.69271 42.9685 2.34375 42.9685H2.44141C2.40885 43.0662 2.38444 43.1638 2.36816 43.2615C2.35189 43.3591 2.34375 43.4731 2.34375 43.6033V43.8962C2.34375 44.5147 2.55534 45.0356 2.97852 45.4587C3.40169 45.8819 3.92253 46.0935 4.54102 46.0935C4.60612 46.0935 4.67936 46.0854 4.76074 46.0691C4.84212 46.0528 4.93164 46.0447 5.0293 46.0447L9.08203 45.1169C9.86328 46.3539 10.8968 47.3468 12.1826 48.0955C13.4684 48.8442 14.8763 49.2185 16.4062 49.2185H16.6016C16.7969 49.2185 17.0085 49.2104 17.2363 49.1941C17.4642 49.1778 17.6921 49.1534 17.9199 49.1208L44.6777 45.0193C45.7845 44.824 46.6878 44.3194 47.3877 43.5056C48.0876 42.6918 48.4375 41.7315 48.4375 40.6248C48.4375 39.7458 48.2015 38.9483 47.7295 38.2322C47.2575 37.516 46.6471 36.9789 45.8984 36.6208C46.7122 35.6768 47.3389 34.6108 47.7783 33.4226C48.2178 32.2345 48.4375 31.0056 48.4375 29.7361V28.0759ZM38.4766 20.6541C39.6484 21.533 40.5599 22.6479 41.2109 23.9988C41.862 25.3497 42.1875 26.7738 42.1875 28.2712V31.1033C42.1875 31.9171 42.0898 32.7065 41.8945 33.4714C41.6992 34.2364 41.4062 34.977 41.0156 35.6931L34.7656 34.7166C34.6354 34.1632 34.5378 33.5935 34.4727 33.0076C34.4076 32.4216 34.375 31.8357 34.375 31.2498V28.1248C34.375 27.7016 34.3913 27.2947 34.4238 26.9041C34.4564 26.5134 34.5052 26.1228 34.5703 25.7322C34.668 25.7647 34.7656 25.781 34.8633 25.781C34.9609 25.781 35.0586 25.781 35.1562 25.781C36.263 25.781 37.1908 25.5613 37.9395 25.1218C38.6882 24.6824 39.0625 24.1208 39.0625 23.4373C39.0625 23.0792 38.9404 22.7374 38.6963 22.4119C38.4521 22.0863 38.1022 21.8259 37.6465 21.6306L37.793 20.3611C37.9232 20.3936 38.0452 20.4343 38.1592 20.4832C38.2731 20.532 38.3789 20.5889 38.4766 20.6541ZM35.0586 13.281H35.2539C35.6445 13.281 35.9863 13.4275 36.2793 13.7205C36.5723 14.0134 36.7188 14.3552 36.7188 14.7458C36.7188 14.7784 36.7188 14.8028 36.7188 14.8191C36.7188 14.8354 36.7188 14.8598 36.7188 14.8923L35.9863 22.656L36.6211 22.8513C36.9466 22.9815 37.1745 23.1036 37.3047 23.2175C37.4349 23.3315 37.5 23.4047 37.5 23.4373C37.5 23.5349 37.2966 23.6895 36.8896 23.9011C36.4827 24.1127 35.9049 24.2185 35.1562 24.2185C34.4076 24.2185 33.8298 24.1127 33.4229 23.9011C33.0159 23.6895 32.8125 23.5349 32.8125 23.4373C32.8125 23.4047 32.8776 23.3315 33.0078 23.2175C33.138 23.1036 33.3659 22.9815 33.6914 22.8513L34.3262 22.656L33.5938 14.8923C33.5938 14.8598 33.5938 14.8354 33.5938 14.8191C33.5938 14.8028 33.5938 14.7784 33.5938 14.7458C33.5938 14.3552 33.7402 14.0134 34.0332 13.7205C34.3262 13.4275 34.668 13.281 35.0586 13.281ZM32.5195 20.3611L32.666 21.6306C32.2103 21.8259 31.8604 22.0863 31.6162 22.4119C31.3721 22.7374 31.25 23.0792 31.25 23.4373C31.25 23.8604 31.4128 24.2429 31.7383 24.5847C32.0638 24.9265 32.5033 25.2113 33.0566 25.4392C32.9915 25.8624 32.9346 26.3018 32.8857 26.7576C32.8369 27.2133 32.8125 27.669 32.8125 28.1248V31.2498C32.8125 31.8031 32.8369 32.3484 32.8857 32.8855C32.9346 33.4226 33.0078 33.9516 33.1055 34.4724L28.5156 33.74C28.3854 33.3168 28.2878 32.8855 28.2227 32.446C28.1576 32.0066 28.125 31.559 28.125 31.1033V28.2712C28.125 26.7738 28.4587 25.3497 29.126 23.9988C29.7933 22.6479 30.7292 21.533 31.9336 20.6541C32.0312 20.5889 32.1289 20.532 32.2266 20.4832C32.3242 20.4343 32.4219 20.3936 32.5195 20.3611ZM24.0723 33.1052C23.877 32.5518 23.7223 31.9985 23.6084 31.4451C23.4945 30.8917 23.4375 30.322 23.4375 29.7361V28.0759C23.4375 26.6436 23.7712 25.2683 24.4385 23.95C25.1058 22.6316 26.0254 21.533 27.1973 20.6541C27.36 20.5564 27.5309 20.475 27.71 20.4099C27.889 20.3448 28.0762 20.3123 28.2715 20.3123C28.4993 20.3123 28.7191 20.3611 28.9307 20.4587C29.1423 20.5564 29.3294 20.6703 29.4922 20.8005C28.5482 21.8097 27.8239 22.9571 27.3193 24.2429C26.8148 25.5287 26.5625 26.8715 26.5625 28.2712V31.1033C26.5625 31.5264 26.5869 31.9333 26.6357 32.324C26.6846 32.7146 26.7578 33.1052 26.8555 33.4958L24.0723 33.1052ZM24.1699 9.6189L24.3164 10.4001L25.0977 10.2537C25.2279 10.2211 25.3499 10.1967 25.4639 10.1804C25.5778 10.1641 25.6836 10.156 25.7812 10.156C26.6276 10.156 27.36 10.4653 27.9785 11.0837C28.597 11.7022 28.9062 12.4347 28.9062 13.281C28.9062 13.7042 28.833 14.1029 28.6865 14.4773C28.54 14.8516 28.3203 15.1853 28.0273 15.4783L27.4902 16.0154L28.0273 16.5525C28.3203 16.8455 28.54 17.1791 28.6865 17.5535C28.833 17.9278 28.9062 18.3266 28.9062 18.7498C28.9062 18.7498 28.9062 18.7579 28.9062 18.7742C28.9062 18.7904 28.9062 18.7986 28.9062 18.7986C28.8086 18.7986 28.7028 18.7904 28.5889 18.7742C28.4749 18.7579 28.3691 18.7498 28.2715 18.7498C27.9134 18.7498 27.5635 18.8067 27.2217 18.9207C26.8799 19.0346 26.5625 19.1892 26.2695 19.3845C25.5859 19.9054 24.9593 20.5076 24.3896 21.1912C23.82 21.8748 23.3561 22.5909 22.998 23.3396C22.8353 22.8839 22.6807 22.4363 22.5342 21.9968C22.3877 21.5574 22.2331 21.1261 22.0703 20.7029C22.4284 18.8149 23.0876 17.3419 24.0479 16.2839C25.0081 15.226 25.4883 14.6807 25.4883 14.6482L25 14.0623L24.5117 13.4763C24.4466 13.5089 24.0072 13.9483 23.1934 14.7947C22.3796 15.641 21.6797 16.8292 21.0938 18.3591C20.2799 16.5037 19.5475 15.0144 18.8965 13.8914C18.2454 12.7683 17.8874 12.158 17.8223 12.0603L16.5527 12.9392C16.5527 12.9392 16.805 13.3787 17.3096 14.2576C17.8141 15.1365 18.4245 16.3246 19.1406 17.822C17.9688 17.3663 16.8376 17.1466 15.7471 17.1628C14.6566 17.1791 14.0625 17.1873 13.9648 17.1873L14.1602 18.7498C14.7461 18.6847 15.7064 18.7253 17.041 18.8718C18.3757 19.0183 19.4336 19.4822 20.2148 20.2634C20.4753 20.947 20.7357 21.655 20.9961 22.3875C21.2565 23.1199 21.5169 23.8767 21.7773 24.658C20.5729 24.072 19.3929 23.7221 18.2373 23.6082C17.0817 23.4942 16.4714 23.4373 16.4062 23.4373V24.9998C16.4388 24.9998 17.1224 25.073 18.457 25.2195C19.7917 25.366 20.9635 25.8461 21.9727 26.6599C21.9401 26.8878 21.9157 27.1238 21.8994 27.3679C21.8831 27.6121 21.875 27.8481 21.875 28.0759V29.7361C21.875 30.2569 21.9157 30.7778 21.9971 31.2986C22.0785 31.8194 22.2005 32.324 22.3633 32.8123L17.9199 32.1287C17.7897 32.1287 17.6676 32.1205 17.5537 32.1042C17.4398 32.088 17.3177 32.0636 17.1875 32.031C16.3411 32.031 15.6087 31.7299 14.9902 31.1277C14.3717 30.5255 14.0625 29.7849 14.0625 28.906C14.0625 28.7107 14.0788 28.5235 14.1113 28.3445C14.1439 28.1654 14.1927 27.9783 14.2578 27.783L14.502 27.197L13.9648 26.8552C13.5091 26.5623 13.151 26.1798 12.8906 25.7078C12.6302 25.2358 12.5 24.7393 12.5 24.2185C12.5 23.9255 12.5407 23.6326 12.6221 23.3396C12.7035 23.0466 12.8418 22.7699 13.0371 22.5095L13.5254 21.7771L12.7441 21.3865C11.9303 20.9633 11.2956 20.3774 10.8398 19.6287C10.3841 18.88 10.1562 18.0662 10.1562 17.1873C10.1562 16.1456 10.4736 15.2097 11.1084 14.3796C11.7432 13.5496 12.5651 12.988 13.5742 12.6951L14.0625 12.5486L14.1113 12.0603C14.209 11.2791 14.5508 10.6362 15.1367 10.1316C15.7227 9.62703 16.4062 9.37476 17.1875 9.37476C17.1875 9.37476 17.1956 9.37476 17.2119 9.37476C17.2282 9.37476 17.2526 9.37476 17.2852 9.37476C17.3177 9.37476 17.3421 9.38289 17.3584 9.39917C17.3747 9.41545 17.3991 9.42358 17.4316 9.42358L18.0176 9.47241L18.2129 8.9353C18.4733 8.34937 18.8639 7.8855 19.3848 7.5437C19.9056 7.2019 20.4753 7.03101 21.0938 7.03101C21.8424 7.03101 22.5098 7.27515 23.0957 7.76343C23.6816 8.25171 24.0397 8.8702 24.1699 9.6189ZM10.6934 27.3435H10.1562C9.3099 27.3435 8.57747 27.0343 7.95898 26.4158C7.34049 25.7973 7.03125 25.0649 7.03125 24.2185C7.03125 24.0232 7.04753 23.836 7.08008 23.657C7.11263 23.4779 7.16146 23.2908 7.22656 23.0955L7.4707 22.5095L6.93359 22.1677C6.47786 21.8748 6.11979 21.4923 5.85938 21.0203C5.59896 20.5483 5.46875 20.0518 5.46875 19.531C5.46875 19.238 5.50944 18.9451 5.59082 18.6521C5.6722 18.3591 5.81055 18.0824 6.00586 17.822L6.49414 17.0896L5.71289 16.699C4.89909 16.2758 4.26432 15.6899 3.80859 14.9412C3.35286 14.1925 3.125 13.3787 3.125 12.4998C3.125 11.4581 3.44238 10.5222 4.07715 9.69214C4.71191 8.86206 5.53385 8.30054 6.54297 8.00757L7.03125 7.86108L7.08008 7.3728C7.17773 6.59155 7.51953 5.94865 8.10547 5.44409C8.69141 4.93953 9.375 4.68726 10.1562 4.68726C10.1562 4.68726 10.1644 4.68726 10.1807 4.68726C10.1969 4.68726 10.2214 4.68726 10.2539 4.68726C10.2865 4.68726 10.3109 4.69539 10.3271 4.71167C10.3434 4.72795 10.3678 4.73608 10.4004 4.73608L10.9863 4.78491L11.1816 4.2478C11.4421 3.66187 11.8327 3.198 12.3535 2.8562C12.8743 2.5144 13.444 2.34351 14.0625 2.34351C14.8112 2.34351 15.4785 2.58765 16.0645 3.07593C16.6504 3.56421 17.0085 4.1827 17.1387 4.9314L17.2852 5.71265L18.0664 5.56616C18.1966 5.53361 18.3187 5.5092 18.4326 5.49292C18.5465 5.47664 18.6523 5.46851 18.75 5.46851C18.9453 5.46851 19.1243 5.48478 19.2871 5.51733C19.4499 5.54988 19.6126 5.59871 19.7754 5.66382C19.1895 5.82658 18.6605 6.09513 18.1885 6.46948C17.7165 6.84383 17.334 7.29142 17.041 7.81226C15.9993 7.84481 15.0716 8.19474 14.2578 8.86206C13.444 9.52938 12.9069 10.3513 12.6465 11.3279C11.4421 11.7836 10.4655 12.5486 9.7168 13.6228C8.9681 14.697 8.59375 15.8852 8.59375 17.1873C8.59375 18.2289 8.83789 19.2055 9.32617 20.1169C9.81445 21.0284 10.4818 21.7771 11.3281 22.363C11.1979 22.656 11.1003 22.9571 11.0352 23.2664C10.9701 23.5756 10.9375 23.893 10.9375 24.2185C10.9375 24.9347 11.084 25.602 11.377 26.2205C11.6699 26.8389 12.0931 27.3761 12.6465 27.8318C12.5814 27.9945 12.5407 28.1654 12.5244 28.3445C12.5081 28.5235 12.5 28.7107 12.5 28.906C12.5 29.5896 12.6383 30.2325 12.915 30.8347C13.1917 31.4369 13.5579 31.9496 14.0137 32.3728C13.7858 32.4379 13.5579 32.5111 13.3301 32.5925C13.1022 32.6739 12.8906 32.7797 12.6953 32.9099L10.6934 27.3435ZM3.90625 37.6462V37.3533C3.90625 37.158 3.98763 36.9952 4.15039 36.865C4.31315 36.7348 4.49219 36.686 4.6875 36.7185L8.39844 37.5486C8.33333 37.6788 8.2845 37.8009 8.25195 37.9148C8.2194 38.0287 8.18685 38.1508 8.1543 38.281H4.54102C4.37826 38.281 4.23177 38.2159 4.10156 38.0857C3.97135 37.9555 3.90625 37.809 3.90625 37.6462ZM1.5625 40.6248C1.5625 40.3969 1.63574 40.2097 1.78223 40.0632C1.92871 39.9167 2.11589 39.8435 2.34375 39.8435H7.86133C7.82878 39.9737 7.8125 40.1039 7.8125 40.2341C7.8125 40.3643 7.8125 40.4945 7.8125 40.6248C7.8125 40.755 7.8125 40.8852 7.8125 41.0154C7.8125 41.1456 7.82878 41.2758 7.86133 41.406H2.34375C2.11589 41.406 1.92871 41.3328 1.78223 41.1863C1.63574 41.0398 1.5625 40.8526 1.5625 40.6248ZM4.6875 44.531C4.49219 44.5636 4.31315 44.5147 4.15039 44.3845C3.98763 44.2543 3.90625 44.0916 3.90625 43.8962V43.6033C3.90625 43.4405 3.97135 43.294 4.10156 43.1638C4.23177 43.0336 4.37826 42.9685 4.54102 42.9685H8.1543C8.18685 43.0987 8.2194 43.2208 8.25195 43.3347C8.2845 43.4486 8.33333 43.5707 8.39844 43.7009L4.6875 44.531ZM46.875 40.6248C46.875 41.3409 46.6471 41.9675 46.1914 42.5046C45.7357 43.0417 45.1497 43.3591 44.4336 43.4568L17.6758 47.5583C17.4805 47.5909 17.2933 47.6153 17.1143 47.6316C16.9352 47.6479 16.7643 47.656 16.6016 47.656H16.4062C14.4531 47.656 12.793 46.9724 11.4258 45.6052C10.0586 44.238 9.375 42.5779 9.375 40.6248C9.375 38.6716 10.0586 37.0115 11.4258 35.6443C12.793 34.2771 14.4531 33.5935 16.4062 33.5935H16.6016C16.7643 33.5935 16.9352 33.6016 17.1143 33.6179C17.2933 33.6342 17.4805 33.6586 17.6758 33.6912L44.4336 37.7927C45.1497 37.8904 45.7357 38.2078 46.1914 38.7449C46.6471 39.282 46.875 39.9086 46.875 40.6248ZM46.875 29.7361C46.875 30.9405 46.639 32.0961 46.167 33.2029C45.695 34.3097 45.0358 35.3025 44.1895 36.1814L42.6758 35.9373C43.0339 35.1886 43.3024 34.4073 43.4814 33.5935C43.6605 32.7797 43.75 31.9496 43.75 31.1033V28.2712C43.75 26.8715 43.4977 25.5287 42.9932 24.2429C42.4886 22.9571 41.7806 21.8097 40.8691 20.8005C41.0319 20.6378 41.2109 20.5157 41.4062 20.4343C41.6016 20.3529 41.8132 20.3123 42.041 20.3123C42.2363 20.3123 42.4235 20.3448 42.6025 20.4099C42.7816 20.475 42.9525 20.5564 43.1152 20.6541C44.2871 21.533 45.2067 22.6316 45.874 23.95C46.5413 25.2683 46.875 26.6436 46.875 28.0759V29.7361ZM15.625 36.7185H17.1875V44.531H15.625V36.7185ZM21.875 36.7185H23.4375V44.531H21.875V36.7185ZM28.125 36.7185H29.6875V44.531H28.125V36.7185ZM34.375 38.281H35.9375V42.9685H34.375V38.281ZM40.625 39.0623H42.1875V42.1873H40.625V39.0623Z" fill="white"/>
  </g>
  <defs>
    <clipPath id="clip0_1_2097">
      <rect width="50" height="50" fill="white" transform="matrix(1 0 0 -1 0 49.9998)"/>
    </clipPath>
  </defs>
</svg>