<svg
            xmlns="http://www.w3.org/2000/svg"
            width="56"
            height="4"
            viewBox="0 0 56 4"
            fill="none"
          >
            <mask id="path-1-inside-1_1_2221" fill="white">
              <path
                d="M0.5 2C0.5 0.895431 1.39543 0 2.5 0H43.5C44.6046 0 45.5 0.895431 45.5 2C45.5 3.10457 44.6046 4 43.5 4H2.5C1.39543 4 0.5 3.10457 0.5 2Z"
              />
            </mask>
            <path
              d="M0.5 2C0.5 -1.31371 3.18629 -4 6.5 -4H39.5C42.8137 -4 45.5 -1.31371 45.5 2C45.5 2.53043 45.2893 3.03914 44.9142 3.41421C44.5391 3.78929 44.0304 4 43.5 4H2.5H0.5H2.5C1.96957 4 1.46086 3.78929 1.08579 3.41421C0.710714 3.03914 0.5 2.53043 0.5 2L0.5 2ZM45.5 4H0.5H45.5ZM0.5 4V0V4ZM45.5 0V4V0Z"
              fill="#4BAF47"
              mask="url(#path-1-inside-1_1_2221)"
            />
            <rect x="51.5" width="4" height="4" rx="2" fill="#4BAF47" />
          </svg>