<svg xmlns="http://www.w3.org/2000/svg" width="12" height="10" viewBox="0 0 12 10" fill="none">
  <g clip-path="url(#clip0_1_2224)">
    <path d="M11.1152 0.185547C11.0632 0.0683594 10.9753 0.00651073 10.8516 0C10.7279 -0.00651073 10.6335 0.0488281 10.5684 0.166016C10.4186 0.426433 10.2396 0.664062 10.0312 0.878906C9.82292 1.08724 9.59342 1.26628 9.34277 1.41602C9.09212 1.56575 8.82357 1.67969 8.53711 1.75781C8.25065 1.83594 7.95117 1.875 7.63867 1.875H6.07617C5.56185 1.875 5.07682 1.97266 4.62109 2.16797C4.16536 2.36328 3.7666 2.63184 3.4248 2.97363C3.08301 3.31543 2.81445 3.71419 2.61914 4.16992C2.42383 4.61914 2.32617 5.10417 2.32617 5.625C2.32617 5.6901 2.32943 5.75684 2.33594 5.8252C2.34245 5.89355 2.34896 5.96029 2.35547 6.02539C2.66797 5.80404 3.01628 5.59245 3.40039 5.39062C3.77799 5.1888 4.19792 5.01302 4.66016 4.86328C5.1224 4.71354 5.62695 4.59635 6.17383 4.51172C6.7207 4.42057 7.31315 4.375 7.95117 4.375C8.03581 4.375 8.10905 4.40592 8.1709 4.46777C8.23275 4.52962 8.26367 4.60286 8.26367 4.6875C8.26367 4.77214 8.23275 4.84538 8.1709 4.90723C8.10905 4.96908 8.03581 5 7.95117 5C6.7207 5 5.66276 5.16276 4.77734 5.48828C3.89193 5.8138 3.15137 6.19954 2.55566 6.64551C1.95996 7.09147 1.49609 7.54883 1.16406 8.01758C0.838542 8.48633 0.617188 8.86068 0.5 9.14062C0.434896 9.29688 0.434896 9.45475 0.5 9.61426C0.565104 9.77376 0.679036 9.88607 0.841797 9.95117C0.998047 10.0163 1.15592 10.0163 1.31543 9.95117C1.47493 9.88607 1.58724 9.77539 1.65234 9.61914C1.67188 9.58008 1.78743 9.37826 1.99902 9.01367C2.21061 8.64909 2.5638 8.25846 3.05859 7.8418C3.22135 8.05664 3.41341 8.26497 3.63477 8.4668C3.86263 8.66862 4.12142 8.84115 4.41113 8.98438C4.70085 9.1276 5.01823 9.23503 5.36328 9.30664C5.70833 9.37826 6.07943 9.39453 6.47656 9.35547C7.24479 9.29688 7.94792 9.0918 8.58594 8.74023C9.22396 8.38867 9.77409 7.92969 10.2363 7.36328C10.6986 6.79688 11.0599 6.13932 11.3203 5.39062C11.5742 4.64844 11.7012 3.85742 11.7012 3.01758C11.7012 2.52279 11.6507 2.03125 11.5498 1.54297C11.4489 1.05469 11.304 0.602214 11.1152 0.185547Z" fill="#A5A49A"/>
  </g>
  <defs>
    <clipPath id="clip0_1_2224">
      <rect width="11.25" height="10" fill="white" transform="matrix(1 0 0 -1 0.5 10)"/>
    </clipPath>
  </defs>
</svg>