<svg xmlns="http://www.w3.org/2000/svg" width="17" height="16" viewBox="0 0 17 16" fill="none">
  <g clip-path="url(#clip0_1_2277)">
    <path d="M6.48047 0C5.65755 0 4.88151 0.15625 4.15234 0.46875C3.42318 0.78125 2.78516 1.21094 2.23828 1.75781C1.69141 2.30469 1.26172 2.94271 0.949219 3.67188C0.636719 4.40104 0.480469 5.17708 0.480469 6C0.480469 7.10417 0.772135 8.23438 1.35547 9.39062C1.92839 10.5365 2.56901 11.5833 3.27734 12.5312C3.98568 13.4792 4.64193 14.2656 5.24609 14.8906C5.86068 15.5156 6.19401 15.8542 6.24609 15.9062C6.27734 15.9375 6.3138 15.9609 6.35547 15.9766C6.39714 15.9922 6.4388 16 6.48047 16C6.52214 16 6.5638 15.9922 6.60547 15.9766C6.64714 15.9609 6.68359 15.9375 6.71484 15.9062C6.76693 15.8542 7.10026 15.5156 7.71484 14.8906C8.31901 14.2656 8.97526 13.4792 9.68359 12.5312C10.3919 11.5833 11.0326 10.5365 11.6055 9.39062C12.1888 8.23438 12.4805 7.10417 12.4805 6C12.4805 5.17708 12.3242 4.40104 12.0117 3.67188C11.6992 2.94271 11.2695 2.30469 10.7227 1.75781C10.1758 1.21094 9.53776 0.78125 8.80859 0.46875C8.07943 0.15625 7.30339 0 6.48047 0ZM6.48047 9.32812C6.02214 9.32812 5.58984 9.24479 5.18359 9.07812C4.77734 8.90104 4.42318 8.66146 4.12109 8.35938C3.81901 8.05729 3.57943 7.70312 3.40234 7.29688C3.23568 6.89062 3.15234 6.45833 3.15234 6C3.15234 5.54167 3.23568 5.10938 3.40234 4.70312C3.57943 4.29688 3.81901 3.94271 4.12109 3.64062C4.42318 3.33854 4.77734 3.09896 5.18359 2.92188C5.58984 2.75521 6.02214 2.67188 6.48047 2.67188C6.9388 2.67188 7.37109 2.75521 7.77734 2.92188C8.18359 3.09896 8.53776 3.33854 8.83984 3.64062C9.14193 3.94271 9.38151 4.29688 9.55859 4.70312C9.72526 5.10938 9.80859 5.54167 9.80859 6C9.80859 6.45833 9.72526 6.89062 9.55859 7.29688C9.38151 7.70312 9.14193 8.05729 8.83984 8.35938C8.53776 8.66146 8.18359 8.90104 7.77734 9.07812C7.37109 9.24479 6.9388 9.32812 6.48047 9.32812Z" fill="#EEC044"/>
  </g>
  <defs>
    <clipPath id="clip0_1_2277">
      <rect width="16" height="16" fill="white" transform="matrix(1 0 0 -1 0.480469 16)"/>
    </clipPath>
  </defs>
</svg>