<svg xmlns="http://www.w3.org/2000/svg" width="15" height="18" viewBox="0 0 15 18" fill="none">
  <g clip-path="url(#clip0_1_2269)">
    <path d="M14.5645 12.4629C14.5645 12.6387 14.5293 12.873 14.459 13.166C14.3887 13.459 14.3184 13.6875 14.248 13.8516C14.1074 14.1914 13.6973 14.5488 13.0176 14.9238C12.3848 15.2637 11.7637 15.4336 11.1543 15.4336C10.9668 15.4336 10.791 15.4219 10.627 15.3984C10.4512 15.375 10.2578 15.334 10.0469 15.2754C9.83594 15.2051 9.67773 15.1523 9.57227 15.1172C9.4668 15.082 9.2793 15.0176 9.00977 14.9238C8.74023 14.8184 8.57617 14.7539 8.51758 14.7305C7.86133 14.4961 7.27539 14.2207 6.75977 13.9043C5.91602 13.377 5.03125 12.6504 4.10547 11.7246C3.19141 10.8105 2.4707 9.93164 1.94336 9.08789C1.61523 8.57227 1.33398 7.98633 1.09961 7.33008C1.08789 7.25977 1.0293 7.0957 0.923828 6.83789C0.830078 6.56836 0.759766 6.38086 0.712891 6.27539C0.677734 6.16992 0.630859 6.01172 0.572266 5.80078C0.513672 5.58984 0.472656 5.39648 0.449219 5.2207C0.425781 5.04492 0.414062 4.86914 0.414062 4.69336C0.414062 4.07227 0.583984 3.45117 0.923828 2.83008C1.29883 2.15039 1.65625 1.74023 1.99609 1.59961C2.16016 1.5293 2.38867 1.45898 2.68164 1.38867C2.97461 1.31836 3.20898 1.2832 3.38477 1.2832C3.47852 1.2832 3.54883 1.29492 3.5957 1.31836C3.71289 1.35352 3.88867 1.60547 4.12305 2.07422C4.20508 2.20312 4.31055 2.38477 4.43945 2.61914C4.55664 2.85352 4.67383 3.06445 4.79102 3.25195C4.89648 3.45117 4.99609 3.63281 5.08984 3.79688C5.11328 3.82031 5.17188 3.90234 5.26562 4.04297C5.37109 4.18359 5.44727 4.30664 5.49414 4.41211C5.54102 4.50586 5.56445 4.59961 5.56445 4.69336C5.56445 4.82227 5.46484 4.98633 5.26562 5.18555C5.07812 5.39648 4.87305 5.58398 4.65039 5.74805C4.42773 5.91211 4.2168 6.08789 4.01758 6.27539C3.83008 6.46289 3.73633 6.61523 3.73633 6.73242C3.73633 6.80273 3.75391 6.87891 3.78906 6.96094C3.82422 7.05469 3.85352 7.125 3.87695 7.17188C3.90039 7.21875 3.94727 7.30078 4.01758 7.41797C4.08789 7.52344 4.12305 7.58789 4.12305 7.61133C4.63867 8.52539 5.22461 9.31055 5.88086 9.9668C6.53711 10.623 7.32227 11.2031 8.23633 11.707C8.24805 11.7188 8.3125 11.7598 8.42969 11.8301C8.54688 11.9004 8.62891 11.9473 8.67578 11.9707C8.72266 11.9941 8.78711 12.0234 8.86914 12.0586C8.96289 12.0938 9.03906 12.1113 9.09766 12.1113C9.22656 12.1113 9.38477 12.0117 9.57227 11.8125C9.75977 11.625 9.93555 11.4199 10.0996 11.1973C10.2637 10.9746 10.4453 10.7637 10.6445 10.5645C10.8438 10.377 11.0137 10.2832 11.1543 10.2832C11.248 10.2832 11.3418 10.3066 11.4355 10.3535C11.5293 10.4004 11.6465 10.4707 11.7871 10.5645C11.9277 10.6699 12.0156 10.7285 12.0508 10.7402C12.2148 10.8457 12.3906 10.9512 12.5781 11.0566C12.7773 11.1621 12.9941 11.2793 13.2285 11.4082C13.4629 11.5371 13.6387 11.6367 13.7559 11.707C14.2246 11.9414 14.4824 12.123 14.5293 12.252C14.5527 12.2988 14.5645 12.3691 14.5645 12.4629Z" fill="#EEC044"/>
  </g>
  <defs>
    <clipPath id="clip0_1_2269">
      <rect width="14.16" height="18" fill="white" transform="matrix(1 0 0 -1 0.410156 18)"/>
    </clipPath>
  </defs>
</svg>