<svg width="15" height="15" viewBox="0 0 15 15" fill="none" xmlns="http://www.w3.org/2000/svg">
<path d="M14.4224 7.75C14.4224 8.59766 14.2765 9.39974 13.9849 10.1562C13.6932 10.9128 13.2899 11.5872 12.7749 12.1797C12.2599 12.7721 11.6561 13.2689 10.9634 13.6699C10.2616 14.0618 9.5096 14.3216 8.70752 14.4492V9.70508H10.2798L10.5806 7.75H8.70752V6.47852C8.70752 6.20508 8.78499 5.95898 8.93994 5.74023C9.09489 5.52148 9.382 5.41211 9.80127 5.41211H10.6626V3.74414C10.6626 3.74414 10.5031 3.72363 10.1841 3.68262C9.86507 3.6416 9.51872 3.62109 9.14502 3.62109C8.37028 3.62109 7.74821 3.84668 7.27881 4.29785C6.80941 4.74902 6.57471 5.403 6.57471 6.25977V7.75H4.85205V9.70508H6.57471V14.4492C5.77262 14.3216 5.02067 14.0618 4.31885 13.6699C3.62614 13.2689 3.0223 12.7721 2.50732 12.1797C1.99235 11.5872 1.58903 10.9128 1.29736 10.1562C1.0057 9.39974 0.859863 8.59766 0.859863 7.75C0.859863 6.8112 1.0376 5.93164 1.39307 5.11133C1.74854 4.29102 2.23389 3.57324 2.84912 2.95801C3.46436 2.34277 4.18213 1.85742 5.00244 1.50195C5.82275 1.14648 6.70231 0.96875 7.64111 0.96875C8.57992 0.96875 9.45947 1.14648 10.2798 1.50195C11.1001 1.85742 11.8179 2.34277 12.4331 2.95801C13.0483 3.57324 13.5337 4.29102 13.8892 5.11133C14.2446 5.93164 14.4224 6.8112 14.4224 7.75Z" fill="#1F1E17"/>
</svg>
