<svg width="14" height="13" viewBox="0 0 14 13" fill="none" xmlns="http://www.w3.org/2000/svg">
<path d="M6.98486 3.60547C7.42236 3.60547 7.83252 3.6875 8.21533 3.85156C8.59814 4.01562 8.93083 4.23893 9.21338 4.52148C9.49593 4.80404 9.71924 5.13672 9.8833 5.51953C10.0474 5.90234 10.1294 6.3125 10.1294 6.75C10.1294 7.17839 10.0474 7.58398 9.8833 7.9668C9.71924 8.34961 9.49593 8.68457 9.21338 8.97168C8.93083 9.25879 8.59814 9.48438 8.21533 9.64844C7.83252 9.8125 7.42236 9.89453 6.98486 9.89453C6.55648 9.89453 6.15088 9.8125 5.76807 9.64844C5.38525 9.48438 5.05029 9.25879 4.76318 8.97168C4.47607 8.68457 4.25049 8.34961 4.08643 7.9668C3.92236 7.58398 3.84033 7.17839 3.84033 6.75C3.84033 6.3125 3.92236 5.90234 4.08643 5.51953C4.25049 5.13672 4.47607 4.80404 4.76318 4.52148C5.05029 4.23893 5.38525 4.01562 5.76807 3.85156C6.15088 3.6875 6.55648 3.60547 6.98486 3.60547ZM6.98486 8.78711C7.54997 8.78711 8.03304 8.58887 8.43408 8.19238C8.83512 7.7959 9.03564 7.3151 9.03564 6.75C9.03564 6.1849 8.83512 5.70182 8.43408 5.30078C8.03304 4.89974 7.54997 4.69922 6.98486 4.69922C6.41976 4.69922 5.93896 4.89974 5.54248 5.30078C5.146 5.70182 4.94775 6.1849 4.94775 6.75C4.94775 7.3151 5.14827 7.7959 5.54932 8.19238C5.95036 8.58887 6.42887 8.78711 6.98486 8.78711ZM10.9907 3.48242C10.9907 3.68294 10.9201 3.85384 10.7788 3.99512C10.6375 4.13639 10.4621 4.20703 10.2524 4.20703C10.0519 4.20703 9.88102 4.13639 9.73975 3.99512C9.59847 3.85384 9.52783 3.68294 9.52783 3.48242C9.52783 3.27279 9.59847 3.09733 9.73975 2.95605C9.88102 2.81478 10.0519 2.74414 10.2524 2.74414C10.4621 2.74414 10.6375 2.81478 10.7788 2.95605C10.9201 3.09733 10.9907 3.27279 10.9907 3.48242ZM13.0688 4.2207C13.0871 4.47591 13.1007 4.83594 13.1099 5.30078C13.1099 5.75651 13.1099 6.2373 13.1099 6.74316C13.1099 7.24902 13.1099 7.73438 13.1099 8.19922C13.1007 8.66406 13.0871 9.02409 13.0688 9.2793C13.0506 9.76237 12.9709 10.2204 12.8296 10.6533C12.6883 11.0863 12.4399 11.4805 12.0845 11.8359C11.729 12.2005 11.3348 12.4512 10.9019 12.5879C10.4689 12.7246 10.0063 12.8066 9.51416 12.834C9.25895 12.8431 8.89893 12.8522 8.43408 12.8613C7.97835 12.8704 7.49756 12.875 6.9917 12.875C6.48584 12.875 6.00049 12.8704 5.53564 12.8613C5.0708 12.8522 4.71077 12.8431 4.45557 12.834C3.96338 12.8066 3.50309 12.7246 3.07471 12.5879C2.64632 12.4512 2.24984 12.2005 1.88525 11.8359C1.52979 11.4805 1.28369 11.0863 1.14697 10.6533C1.01025 10.2204 0.928223 9.76237 0.900879 9.2793C0.88265 9.02409 0.873535 8.66406 0.873535 8.19922C0.864421 7.73438 0.859863 7.24902 0.859863 6.74316C0.859863 6.2373 0.864421 5.75195 0.873535 5.28711C0.873535 4.83138 0.88265 4.47591 0.900879 4.2207C0.928223 3.72852 1.01025 3.26595 1.14697 2.83301C1.28369 2.40007 1.52979 2.00586 1.88525 1.65039C2.24984 1.29492 2.6486 1.04655 3.08154 0.905273C3.51449 0.763997 3.97249 0.684245 4.45557 0.666016C4.71077 0.647786 5.0708 0.634114 5.53564 0.625C6.00049 0.625 6.48584 0.625 6.9917 0.625C7.49756 0.625 7.97835 0.625 8.43408 0.625C8.89893 0.634114 9.25895 0.647786 9.51416 0.666016C10.0063 0.693359 10.4689 0.775391 10.9019 0.912109C11.3348 1.04883 11.729 1.29492 12.0845 1.65039C12.4399 2.01497 12.6883 2.41146 12.8296 2.83984C12.9709 3.26823 13.0506 3.72852 13.0688 4.2207ZM11.77 10.3594C11.8429 10.1589 11.8976 9.89909 11.9341 9.58008C11.9705 9.26107 11.9956 8.92839 12.0093 8.58203C12.0229 8.23568 12.0252 7.89844 12.0161 7.57031C12.0161 7.24219 12.0161 6.96875 12.0161 6.75C12.0161 6.52214 12.0161 6.24414 12.0161 5.91602C12.0252 5.58789 12.0229 5.25065 12.0093 4.9043C11.9956 4.55794 11.9705 4.22982 11.9341 3.91992C11.8976 3.60091 11.8429 3.34115 11.77 3.14062C11.6606 2.86719 11.5057 2.63021 11.3052 2.42969C11.1047 2.22917 10.8677 2.07422 10.5942 1.96484C10.3937 1.89193 10.134 1.83724 9.81494 1.80078C9.50505 1.76432 9.17692 1.73926 8.83057 1.72559C8.48421 1.71191 8.14697 1.70964 7.81885 1.71875C7.49072 1.71875 7.21273 1.71875 6.98486 1.71875C6.76611 1.71875 6.49268 1.71875 6.16455 1.71875C5.83643 1.70964 5.49919 1.71191 5.15283 1.72559C4.80648 1.73926 4.4738 1.76432 4.15479 1.80078C3.83577 1.83724 3.57601 1.89193 3.37549 1.96484C3.10205 2.07422 2.86507 2.22917 2.66455 2.42969C2.46403 2.63021 2.31364 2.86719 2.21338 3.14062C2.13135 3.34115 2.0721 3.60091 2.03564 3.91992C1.99919 4.22982 1.9764 4.55794 1.96729 4.9043C1.95817 5.25065 1.95361 5.58789 1.95361 5.91602C1.96273 6.24414 1.96729 6.52214 1.96729 6.75C1.96729 6.96875 1.96273 7.24219 1.95361 7.57031C1.95361 7.89844 1.95817 8.23568 1.96729 8.58203C1.9764 8.92839 1.99919 9.26107 2.03564 9.58008C2.0721 9.89909 2.13135 10.1589 2.21338 10.3594C2.32275 10.6328 2.4777 10.8675 2.67822 11.0635C2.87874 11.2594 3.11117 11.4121 3.37549 11.5215C3.57601 11.6035 3.83577 11.6628 4.15479 11.6992C4.4738 11.7357 4.80648 11.7585 5.15283 11.7676C5.49919 11.7767 5.83643 11.7812 6.16455 11.7812C6.49268 11.7721 6.76611 11.7676 6.98486 11.7676C7.21273 11.7676 7.49072 11.7721 7.81885 11.7812C8.14697 11.7812 8.48421 11.7767 8.83057 11.7676C9.17692 11.7585 9.50505 11.7357 9.81494 11.6992C10.134 11.6628 10.3937 11.6035 10.5942 11.5215C10.8677 11.4121 11.1047 11.2572 11.3052 11.0566C11.5057 10.8561 11.6606 10.6237 11.77 10.3594Z" fill="#1F1E17"/>
</svg>
