<svg width="12" height="15" viewBox="0 0 12 15" fill="none" xmlns="http://www.w3.org/2000/svg">
<path d="M6.18799 0.927734C6.83512 0.927734 7.45492 1.03255 8.04736 1.24219C8.63981 1.46094 9.16162 1.76628 9.61279 2.1582C10.064 2.55013 10.4263 3.01953 10.6997 3.56641C10.9731 4.1224 11.1099 4.73763 11.1099 5.41211C11.1099 6.05013 11.0278 6.68815 10.8638 7.32617C10.6997 7.97331 10.4445 8.55208 10.0981 9.0625C9.75179 9.57292 9.31429 9.99219 8.78564 10.3203C8.257 10.6393 7.62809 10.7988 6.89893 10.7988C6.55257 10.7988 6.19255 10.7145 5.81885 10.5459C5.44515 10.3773 5.17627 10.1335 5.01221 9.81445C4.6932 11.0449 4.4585 11.904 4.30811 12.3916C4.15771 12.8792 3.74072 13.5924 3.05713 14.5312C2.98421 14.5586 2.94548 14.5723 2.94092 14.5723C2.93636 14.5723 2.9113 14.5449 2.86572 14.4902C2.83838 14.235 2.81104 13.9798 2.78369 13.7246C2.75635 13.4694 2.74268 13.2142 2.74268 12.959C2.74268 12.5397 2.78369 12.0794 2.86572 11.5781C2.94775 11.0859 3.05029 10.5846 3.17334 10.0742C3.29639 9.5638 3.42171 9.06706 3.54932 8.58398C3.68604 8.0918 3.79997 7.64062 3.89111 7.23047C3.79085 7.02083 3.72249 6.79525 3.68604 6.55371C3.64958 6.31217 3.63135 6.07747 3.63135 5.84961C3.63135 5.30273 3.76351 4.87435 4.02783 4.56445C4.29216 4.25456 4.5861 4.06543 4.90967 3.99707C5.23324 3.92871 5.52718 3.99023 5.7915 4.18164C6.06494 4.37305 6.20166 4.69206 6.20166 5.13867C6.20166 5.67643 6.08089 6.19824 5.83936 6.7041C5.59782 7.20996 5.47705 7.72266 5.47705 8.24219C5.47705 8.59766 5.60238 8.88704 5.85303 9.11035C6.10368 9.33366 6.39762 9.44531 6.73486 9.44531C7.20882 9.44531 7.60531 9.29492 7.92432 8.99414C8.23421 8.69336 8.48486 8.32878 8.67627 7.90039C8.86768 7.47201 9.00439 7.01628 9.08643 6.5332C9.16846 6.05013 9.20947 5.6263 9.20947 5.26172C9.20947 4.77865 9.12744 4.35026 8.96338 3.97656C8.79932 3.60286 8.57373 3.28841 8.28662 3.0332C7.99951 2.778 7.65544 2.58659 7.25439 2.45898C6.86247 2.33138 6.43408 2.26758 5.96924 2.26758C5.42236 2.26758 4.9165 2.35872 4.45166 2.54102C3.98682 2.72331 3.58122 2.98079 3.23486 3.31348C2.88851 3.64616 2.61963 4.04492 2.42822 4.50977C2.2277 4.9655 2.12744 5.47135 2.12744 6.02734C2.12744 6.55599 2.23454 6.96387 2.44873 7.25098C2.66292 7.53809 2.77002 7.74544 2.77002 7.87305C2.77002 7.98242 2.73356 8.17155 2.66064 8.44043C2.58773 8.70931 2.48291 8.84375 2.34619 8.84375C2.01807 8.84375 1.64665 8.58171 1.23193 8.05762C0.81722 7.53353 0.609863 6.78841 0.609863 5.82227C0.609863 5.06575 0.769368 4.38672 1.08838 3.78516C1.40739 3.17448 1.82666 2.6595 2.34619 2.24023C2.86572 1.82096 3.46273 1.4974 4.13721 1.26953C4.80257 1.04167 5.48617 0.927734 6.18799 0.927734Z" fill="#1F1E17"/>
</svg>
