<svg xmlns="http://www.w3.org/2000/svg" width="65" height="64" viewBox="0 0 65 64" fill="none">
  <g clip-path="url(#clip0_1_2177)">
    <path d="M60.3599 28.9375L58.7349 22.3125C58.9432 22.2708 59.1203 22.1562 59.2661 21.9688C59.4119 21.7812 59.4849 21.5625 59.4849 21.3125V20.25C59.4849 19.0833 59.0786 18.0938 58.2661 17.2812C57.4536 16.4688 56.464 16.0625 55.2974 16.0625H47.7349V13.8125C47.7349 13.2708 47.5369 12.7917 47.1411 12.375C46.7453 11.9583 46.2557 11.75 45.6724 11.75H7.23486C6.65153 11.75 6.15153 11.9583 5.73486 12.375C5.3182 12.7917 5.10986 13.2708 5.10986 13.8125V32C5.10986 32.2917 5.21403 32.5312 5.42236 32.7188C5.6307 32.9062 5.85986 33 6.10986 33C6.40153 33 6.64111 32.9062 6.82861 32.7188C7.01611 32.5312 7.10986 32.2917 7.10986 32V13.8125C7.10986 13.8125 7.12028 13.8021 7.14111 13.7812C7.16195 13.7604 7.1932 13.75 7.23486 13.75H45.6724C45.714 13.75 45.7349 13.7604 45.7349 13.7812C45.7349 13.8021 45.7349 13.8125 45.7349 13.8125V32C45.7349 32.2917 45.839 32.5312 46.0474 32.7188C46.2557 32.9062 46.4849 33 46.7349 33C47.0265 33 47.2661 32.9062 47.4536 32.7188C47.6411 32.5312 47.7349 32.2917 47.7349 32V30.875H59.6099C60.3182 30.875 60.9536 31.0833 61.5161 31.5C62.0786 31.9167 62.464 32.4583 62.6724 33.125H59.6099C59.3182 33.125 59.0786 33.2292 58.8911 33.4375C58.7036 33.6458 58.6099 33.875 58.6099 34.125V36.25C58.6099 37.125 58.9119 37.875 59.5161 38.5C60.1203 39.125 60.8599 39.4375 61.7349 39.4375H62.8599V43.8125H60.2349C59.8182 42.5625 59.0578 41.5417 57.9536 40.75C56.8494 39.9583 55.6099 39.5625 54.2349 39.5625C52.8599 39.5625 51.6203 39.9583 50.5161 40.75C49.4119 41.5417 48.6515 42.5625 48.2349 43.8125H47.7349V36.25C47.7349 36 47.6411 35.7708 47.4536 35.5625C47.2661 35.3542 47.0265 35.25 46.7349 35.25C46.4849 35.25 46.2557 35.3542 46.0474 35.5625C45.839 35.7708 45.7349 36 45.7349 36.25V43.8125H24.9849C24.5265 42.5625 23.7557 41.5417 22.6724 40.75C21.589 39.9583 20.3599 39.5625 18.9849 39.5625C17.5682 39.5625 16.3182 39.9583 15.2349 40.75C14.1515 41.5417 13.4015 42.5625 12.9849 43.8125H7.23486C7.1932 43.8125 7.16195 43.8125 7.14111 43.8125C7.12028 43.8125 7.10986 43.7917 7.10986 43.75V41.5625H11.4849C11.7765 41.5625 12.0161 41.4583 12.2036 41.25C12.3911 41.0417 12.4849 40.8125 12.4849 40.5625C12.4849 40.2708 12.3911 40.0312 12.2036 39.8438C12.0161 39.6562 11.7765 39.5625 11.4849 39.5625H1.85986C1.5682 39.5625 1.32861 39.6562 1.14111 39.8438C0.953613 40.0312 0.859863 40.2708 0.859863 40.5625C0.859863 40.8125 0.953613 41.0417 1.14111 41.25C1.32861 41.4583 1.5682 41.5625 1.85986 41.5625H5.10986V43.75C5.10986 44.3333 5.3182 44.8229 5.73486 45.2188C6.15153 45.6146 6.65153 45.8125 7.23486 45.8125H12.6099C12.6099 45.8542 12.6099 45.875 12.6099 45.875C12.6099 47.625 13.2349 49.125 14.4849 50.375C15.7349 51.625 17.2349 52.25 18.9849 52.25C20.7349 52.25 22.2244 51.625 23.4536 50.375C24.6828 49.125 25.2974 47.625 25.2974 45.875C25.2974 45.875 25.2974 45.8542 25.2974 45.8125H47.9224C47.9224 45.8542 47.9119 45.875 47.8911 45.875C47.8703 45.875 47.8599 45.875 47.8599 45.875C47.8599 47.625 48.4849 49.125 49.7349 50.375C50.9849 51.625 52.4849 52.25 54.2349 52.25C55.9849 52.25 57.4849 51.625 58.7349 50.375C59.9849 49.125 60.6099 47.625 60.6099 45.875C60.6099 45.875 60.6099 45.8542 60.6099 45.8125H63.8599C64.1515 45.8125 64.3911 45.7188 64.5786 45.5312C64.7661 45.3438 64.8599 45.1042 64.8599 44.8125V34.125C64.8599 32.8333 64.4328 31.6875 63.5786 30.6875C62.7244 29.6875 61.6515 29.1042 60.3599 28.9375ZM47.7349 18.0625H55.2974C55.9224 18.0625 56.4432 18.2708 56.8599 18.6875C57.2765 19.1042 57.4849 19.625 57.4849 20.25V20.3125H47.7349V18.0625ZM47.7349 28.875V22.3125H56.6724L58.2974 28.875H47.7349ZM18.9849 50.25C17.7765 50.25 16.7453 49.8229 15.8911 48.9688C15.0369 48.1146 14.6099 47.0833 14.6099 45.875C14.6099 44.7083 15.0369 43.6979 15.8911 42.8438C16.7453 41.9896 17.7765 41.5625 18.9849 41.5625C20.1515 41.5625 21.1619 41.9896 22.0161 42.8438C22.8703 43.6979 23.2974 44.7083 23.2974 45.875C23.2974 47.0833 22.8703 48.1146 22.0161 48.9688C21.1619 49.8229 20.1515 50.25 18.9849 50.25ZM54.2349 50.25C53.0265 50.25 52.0057 49.8229 51.1724 48.9688C50.339 48.1146 49.9224 47.0833 49.9224 45.875C49.9224 44.7083 50.339 43.6979 51.1724 42.8438C52.0057 41.9896 53.0265 41.5625 54.2349 41.5625C55.4432 41.5625 56.4744 41.9896 57.3286 42.8438C58.1828 43.6979 58.6099 44.7083 58.6099 45.875C58.6099 47.0833 58.1828 48.1146 57.3286 48.9688C56.4744 49.8229 55.4432 50.25 54.2349 50.25ZM62.8599 37.4375H61.7349C61.4015 37.4375 61.1307 37.3229 60.9224 37.0938C60.714 36.8646 60.6099 36.5833 60.6099 36.25V35.125H62.8599V37.4375ZM18.9849 43.8125C18.4015 43.8125 17.9119 44.0208 17.5161 44.4375C17.1203 44.8542 16.9224 45.3333 16.9224 45.875C16.9224 46.4583 17.1203 46.9479 17.5161 47.3438C17.9119 47.7396 18.4015 47.9375 18.9849 47.9375C19.5265 47.9375 20.0057 47.7396 20.4224 47.3438C20.839 46.9479 21.0474 46.4583 21.0474 45.875C21.0474 45.3333 20.839 44.8542 20.4224 44.4375C20.0057 44.0208 19.5265 43.8125 18.9849 43.8125ZM54.2349 43.8125C53.6515 43.8125 53.1619 44.0208 52.7661 44.4375C52.3703 44.8542 52.1724 45.3333 52.1724 45.875C52.1724 46.4583 52.3703 46.9479 52.7661 47.3438C53.1619 47.7396 53.6515 47.9375 54.2349 47.9375C54.8182 47.9375 55.3078 47.7396 55.7036 47.3438C56.0994 46.9479 56.2974 46.4583 56.2974 45.875C56.2974 45.3333 56.0994 44.8542 55.7036 44.4375C55.3078 44.0208 54.8182 43.8125 54.2349 43.8125ZM42.4849 39.5625H27.4849C27.2349 39.5625 27.0057 39.6562 26.7974 39.8438C26.589 40.0312 26.4849 40.2708 26.4849 40.5625C26.4849 40.8125 26.589 41.0417 26.7974 41.25C27.0057 41.4583 27.2349 41.5625 27.4849 41.5625H42.4849C42.7765 41.5625 43.0161 41.4583 43.2036 41.25C43.3911 41.0417 43.4849 40.8125 43.4849 40.5625C43.4849 40.2708 43.3911 40.0312 43.2036 39.8438C43.0161 39.6562 42.7765 39.5625 42.4849 39.5625ZM16.7974 35.25H3.98486C3.73486 35.25 3.5057 35.3542 3.29736 35.5625C3.08903 35.7708 2.98486 36 2.98486 36.25C2.98486 36.5417 3.08903 36.7812 3.29736 36.9688C3.5057 37.1562 3.73486 37.25 3.98486 37.25H16.7974C17.089 37.25 17.3286 37.1562 17.5161 36.9688C17.7036 36.7812 17.7974 36.5417 17.7974 36.25C17.7974 36 17.7036 35.7708 17.5161 35.5625C17.3286 35.3542 17.089 35.25 16.7974 35.25ZM35.7349 21.6875C35.5265 21.4792 35.2869 21.375 35.0161 21.375C34.7453 21.375 34.5057 21.4792 34.2974 21.6875L25.3599 30.5625L20.7349 25.9375C20.5265 25.7292 20.2869 25.625 20.0161 25.625C19.7453 25.625 19.5057 25.7292 19.2974 25.9375C19.1307 26.1458 19.0474 26.3854 19.0474 26.6562C19.0474 26.9271 19.1307 27.1667 19.2974 27.375L24.6724 32.6875C24.7557 32.8125 24.8599 32.8958 24.9849 32.9375C25.1099 32.9792 25.2349 33 25.3599 33C25.4849 33 25.6099 32.9792 25.7349 32.9375C25.8599 32.8958 25.9849 32.8125 26.1099 32.6875L35.7349 23.0625C35.9015 22.8958 35.9849 22.6667 35.9849 22.375C35.9849 22.0833 35.9015 21.8542 35.7349 21.6875Z" fill="#4BAF47"/>
  </g>
  <defs>
    <clipPath id="clip0_1_2177">
      <rect width="64" height="64" fill="white" transform="matrix(1 0 0 -1 0.859863 64)"/>
    </clipPath>
  </defs>
</svg>