<svg xmlns="http://www.w3.org/2000/svg" width="65" height="64" viewBox="0 0 65 64" fill="none">
  <g clip-path="url(#clip0_1_2184)">
    <path d="M47.7524 48.3125C47.7524 48.0208 47.8462 47.7812 48.0337 47.5938C48.2212 47.4062 48.4608 47.3125 48.7524 47.3125C49.0024 47.3125 49.2316 47.4062 49.4399 47.5938C49.6483 47.7812 49.7524 48.0208 49.7524 48.3125V63C49.7524 63.2917 49.6483 63.5312 49.4399 63.7188C49.2316 63.9062 49.0024 64 48.7524 64H6.12744C5.87744 64 5.64827 63.9062 5.43994 63.7188C5.23161 63.5312 5.12744 63.2917 5.12744 63V37.75C5.12744 37.4583 5.23161 37.2188 5.43994 37.0312C5.64827 36.8438 5.87744 36.75 6.12744 36.75C6.41911 36.75 6.65869 36.8438 6.84619 37.0312C7.03369 37.2188 7.12744 37.4583 7.12744 37.75V62H47.7524V48.3125ZM15.0024 60.375C15.0024 60.6667 14.8983 60.9167 14.6899 61.125C14.4816 61.3333 14.2524 61.4375 14.0024 61.4375C13.7108 61.4375 13.4712 61.3333 13.2837 61.125C13.0962 60.9167 13.0024 60.6667 13.0024 60.375V47.625C13.0024 46.6667 13.1795 45.7708 13.5337 44.9375C13.8879 44.1042 14.3774 43.375 15.0024 42.75C15.6274 42.125 16.367 41.6354 17.2212 41.2812C18.0754 40.9271 18.9608 40.75 19.8774 40.75C20.8358 40.75 21.7316 40.9271 22.5649 41.2812C23.3983 41.6354 24.1274 42.125 24.7524 42.75C25.3774 43.375 25.8774 44.1042 26.2524 44.9375C26.6274 45.7708 26.8149 46.6667 26.8149 47.625V60.375C26.8149 60.6667 26.7108 60.9167 26.5024 61.125C26.2941 61.3333 26.0649 61.4375 25.8149 61.4375C25.5233 61.4375 25.2837 61.3333 25.0962 61.125C24.9087 60.9167 24.8149 60.6667 24.8149 60.375V47.625C24.8149 46.9583 24.6795 46.3229 24.4087 45.7188C24.1379 45.1146 23.7941 44.6042 23.3774 44.1875C22.9191 43.7292 22.3879 43.375 21.7837 43.125C21.1795 42.875 20.5441 42.75 19.8774 42.75C19.2108 42.75 18.5754 42.875 17.9712 43.125C17.367 43.375 16.8566 43.7292 16.4399 44.1875C15.9816 44.6042 15.6274 45.1146 15.3774 45.7188C15.1274 46.3229 15.0024 46.9583 15.0024 47.625V60.375ZM33.2524 52.4375H42.4399V45.4375H33.2524V52.4375ZM43.4399 54.4375H32.2524C31.9608 54.4375 31.7212 54.3333 31.5337 54.125C31.3462 53.9167 31.2524 53.6875 31.2524 53.4375V44.4375C31.2524 44.1458 31.3462 43.9062 31.5337 43.7188C31.7212 43.5312 31.9608 43.4375 32.2524 43.4375H43.4399C43.6899 43.4375 43.9191 43.5312 44.1274 43.7188C44.3358 43.9062 44.4399 44.1458 44.4399 44.4375V53.4375C44.4399 53.6875 44.3358 53.9167 44.1274 54.125C43.9191 54.3333 43.6899 54.4375 43.4399 54.4375ZM21.5649 55C21.8566 55 22.0962 54.9062 22.2837 54.7188C22.4712 54.5312 22.5649 54.3125 22.5649 54.0625C22.5649 53.7708 22.4712 53.5208 22.2837 53.3125C22.0962 53.1042 21.8566 53 21.5649 53C21.2733 53 21.0337 53.1042 20.8462 53.3125C20.6587 53.5208 20.5649 53.7708 20.5649 54.0625C20.5649 54.3125 20.6587 54.5312 20.8462 54.7188C21.0337 54.9062 21.2733 55 21.5649 55ZM22.7524 31V30.9375L23.3774 18.5625H19.5649L17.3149 31.0625C17.3149 31.4375 17.3879 31.8021 17.5337 32.1562C17.6795 32.5104 17.8566 32.8125 18.0649 33.0625C18.3149 33.3125 18.6066 33.5104 18.9399 33.6562C19.2733 33.8021 19.6274 33.875 20.0024 33.875C20.3774 33.875 20.7316 33.8021 21.0649 33.6562C21.3983 33.5104 21.6691 33.3125 21.8774 33.0625C22.1691 32.8125 22.3774 32.5 22.5024 32.125C22.6274 31.75 22.6899 31.375 22.6899 31H22.7524ZM25.3774 18.5625L24.7524 31C24.7524 31.375 24.8254 31.75 24.9712 32.125C25.117 32.5 25.3149 32.8125 25.5649 33.0625C25.7733 33.3125 26.0441 33.5104 26.3774 33.6562C26.7108 33.8021 27.0649 33.875 27.4399 33.875C27.8149 33.875 28.1691 33.8021 28.5024 33.6562C28.8358 33.5104 29.1274 33.3125 29.3774 33.0625C29.6274 32.8125 29.8149 32.5 29.9399 32.125C30.0649 31.75 30.1274 31.375 30.1274 31H30.1899L29.8149 24.75C29.8149 24.4583 29.9087 24.2083 30.0962 24C30.2837 23.7917 30.5024 23.6875 30.7524 23.6875C31.0441 23.6875 31.2941 23.7812 31.5024 23.9688C31.7108 24.1562 31.8149 24.375 31.8149 24.625L32.1274 30.9375V31H32.1899C32.1899 31.375 32.2629 31.75 32.4087 32.125C32.5545 32.5 32.7524 32.8125 33.0024 33.0625C33.2108 33.3125 33.4816 33.5104 33.8149 33.6562C34.1483 33.8021 34.5024 33.875 34.8774 33.875C35.1691 33.875 35.4087 33.9792 35.5962 34.1875C35.7837 34.3958 35.8774 34.625 35.8774 34.875C35.8774 35.1667 35.7837 35.4062 35.5962 35.5938C35.4087 35.7812 35.1691 35.875 34.8774 35.875C34.2108 35.875 33.5962 35.75 33.0337 35.5C32.4712 35.25 31.9608 34.8958 31.5024 34.4375C31.4608 34.3542 31.4087 34.2812 31.3462 34.2188C31.2837 34.1562 31.2316 34.0833 31.1899 34C31.1066 34.0833 31.0337 34.1562 30.9712 34.2188C30.9087 34.2812 30.8566 34.3542 30.8149 34.4375C30.3566 34.8958 29.8462 35.25 29.2837 35.5C28.7212 35.75 28.1066 35.875 27.4399 35.875C26.7733 35.875 26.1587 35.75 25.5962 35.5C25.0337 35.25 24.5233 34.8958 24.0649 34.4375C24.0233 34.3542 23.9712 34.2812 23.9087 34.2188C23.8462 34.1562 23.7941 34.0833 23.7524 34C23.6691 34.0833 23.5962 34.1562 23.5337 34.2188C23.4712 34.2812 23.4191 34.3542 23.3774 34.4375C22.9191 34.8958 22.4087 35.25 21.8462 35.5C21.2837 35.75 20.6691 35.875 20.0024 35.875C19.3358 35.875 18.7212 35.75 18.1587 35.5C17.5962 35.25 17.0858 34.8958 16.6274 34.4375C16.5858 34.3542 16.5337 34.2812 16.4712 34.2188C16.4087 34.1562 16.3358 34.0833 16.2524 34C16.2108 34.0833 16.1587 34.1562 16.0962 34.2188C16.0337 34.2812 15.9816 34.3542 15.9399 34.4375C15.4816 34.8958 14.9712 35.25 14.4087 35.5C13.8462 35.75 13.2316 35.875 12.5649 35.875C11.8983 35.875 11.2837 35.75 10.7212 35.5C10.1587 35.25 9.64827 34.8958 9.18994 34.4375C9.14827 34.3542 9.09619 34.2812 9.03369 34.2188C8.97119 34.1562 8.89827 34.0833 8.81494 34C8.77327 34.0833 8.72119 34.1562 8.65869 34.2188C8.59619 34.2812 8.54411 34.3542 8.50244 34.4375C8.04411 34.8958 7.53369 35.25 6.97119 35.5C6.40869 35.75 5.79411 35.875 5.12744 35.875C4.58577 35.875 4.06494 35.7812 3.56494 35.5938C3.06494 35.4062 2.60661 35.1458 2.18994 34.8125C1.77327 34.4792 1.41911 34.0833 1.12744 33.625C0.835775 33.1667 0.648275 32.6667 0.564941 32.125C0.523275 31.9583 0.492025 31.7812 0.471191 31.5938C0.450358 31.4062 0.439941 31.2292 0.439941 31.0625C0.481608 30.8958 0.523275 30.7292 0.564941 30.5625C0.606608 30.3958 0.648275 30.2292 0.689941 30.0625L4.81494 19.9375C5.06494 19.4375 5.35661 18.9792 5.68994 18.5625C6.02327 18.1458 6.39827 17.7917 6.81494 17.5C7.23161 17.1667 7.70036 16.9271 8.22119 16.7812C8.74202 16.6354 9.27327 16.5625 9.81494 16.5625H28.0649C28.3566 16.5625 28.5962 16.6562 28.7837 16.8438C28.9712 17.0312 29.0649 17.2708 29.0649 17.5625C29.0649 17.8125 28.9712 18.0417 28.7837 18.25C28.5962 18.4583 28.3566 18.5625 28.0649 18.5625H25.3774ZM17.5649 18.5625H13.5024L9.87744 31.0625C9.87744 31.4792 9.95036 31.8542 10.0962 32.1875C10.242 32.5208 10.4191 32.8125 10.6274 33.0625C10.8774 33.3125 11.1691 33.5104 11.5024 33.6562C11.8358 33.8021 12.1899 33.875 12.5649 33.875C12.9399 33.875 13.2941 33.8021 13.6274 33.6562C13.9608 33.5104 14.2316 33.3125 14.4399 33.0625C14.7316 32.8125 14.9399 32.5 15.0649 32.125C15.1899 31.75 15.2524 31.375 15.2524 31H15.3149C15.3149 30.9583 15.3149 30.9167 15.3149 30.875C15.3149 30.8333 15.3149 30.8125 15.3149 30.8125L17.5649 18.5625ZM11.4399 18.5625H9.81494C9.48161 18.5625 9.14827 18.6042 8.81494 18.6875C8.48161 18.7708 8.18994 18.9167 7.93994 19.125C7.68994 19.2917 7.45036 19.5104 7.22119 19.7812C6.99202 20.0521 6.81494 20.375 6.68994 20.75L2.56494 30.8125C2.52327 30.8958 2.49202 30.9688 2.47119 31.0312C2.45036 31.0938 2.43994 31.1667 2.43994 31.25C2.43994 31.2917 2.43994 31.3542 2.43994 31.4375C2.43994 31.5208 2.46077 31.6042 2.50244 31.6875C2.54411 32.0208 2.64827 32.3229 2.81494 32.5938C2.98161 32.8646 3.18994 33.1042 3.43994 33.3125C3.68994 33.4792 3.95036 33.6146 4.22119 33.7188C4.49202 33.8229 4.79411 33.875 5.12744 33.875C5.50244 33.875 5.85661 33.8021 6.18994 33.6562C6.52327 33.5104 6.79411 33.3125 7.00244 33.0625C7.29411 32.8125 7.50244 32.5 7.62744 32.125C7.75244 31.75 7.81494 31.375 7.81494 31H7.87744C7.87744 30.9167 7.87744 30.8542 7.87744 30.8125C7.87744 30.7708 7.87744 30.7292 7.87744 30.6875L11.4399 18.5625ZM30.7524 57.8125C30.4608 57.8125 30.2212 57.7083 30.0337 57.5C29.8462 57.2917 29.7524 57.0625 29.7524 56.8125C29.7524 56.5208 29.8462 56.2812 30.0337 56.0938C30.2212 55.9062 30.4608 55.8125 30.7524 55.8125H44.9399C45.1899 55.8125 45.4087 55.9062 45.5962 56.0938C45.7837 56.2812 45.8774 56.5208 45.8774 56.8125C45.8774 57.0625 45.7837 57.2917 45.5962 57.5C45.4087 57.7083 45.1899 57.8125 44.9399 57.8125H30.7524ZM62.4399 23.375L49.5649 45.125C49.4399 45.375 49.242 45.5312 48.9712 45.5938C48.7004 45.6562 48.4399 45.625 48.1899 45.5C48.1066 45.4583 48.0337 45.4062 47.9712 45.3438C47.9087 45.2812 47.8566 45.2083 47.8149 45.125L35.0024 23.375C35.0024 23.375 34.992 23.3646 34.9712 23.3438C34.9504 23.3229 34.9399 23.3125 34.9399 23.3125C34.6483 22.7292 34.3774 22.1354 34.1274 21.5312C33.8774 20.9271 33.6691 20.3125 33.5024 19.6875C33.3358 19.0208 33.2108 18.3646 33.1274 17.7188C33.0441 17.0729 33.0024 16.3958 33.0024 15.6875C33.0024 13.5208 33.4191 11.4896 34.2524 9.59375C35.0858 7.69792 36.2108 6.04167 37.6274 4.625C39.0441 3.20833 40.7004 2.08333 42.5962 1.25C44.492 0.416668 46.5441 0 48.7524 0C50.9191 0 52.9504 0.416668 54.8462 1.25C56.742 2.08333 58.3983 3.20833 59.8149 4.625C61.2316 6.04167 62.3566 7.69792 63.1899 9.59375C64.0233 11.4896 64.4399 13.5208 64.4399 15.6875C64.4399 16.3958 64.3983 17.0729 64.3149 17.7188C64.2316 18.3646 64.1066 19.0208 63.9399 19.6875C63.7733 20.3125 63.5649 20.9375 63.3149 21.5625C63.0649 22.1875 62.7733 22.7917 62.4399 23.375ZM48.7524 6.1875C50.0441 6.1875 51.2733 6.4375 52.4399 6.9375C53.6066 7.4375 54.6066 8.125 55.4399 9C56.3149 9.83333 57.0024 10.8333 57.5024 12C58.0024 13.1667 58.2524 14.3958 58.2524 15.6875C58.2524 17.0208 58.0024 18.2708 57.5024 19.4375C57.0024 20.6042 56.3149 21.6042 55.4399 22.4375C54.6066 23.3125 53.6066 24 52.4399 24.5C51.2733 25 50.0441 25.25 48.7524 25.25C47.4191 25.25 46.1691 25 45.0024 24.5C43.8358 24 42.8149 23.3125 41.9399 22.4375C41.1066 21.6042 40.4399 20.6042 39.9399 19.4375C39.4399 18.2708 39.1899 17.0208 39.1899 15.6875C39.1899 14.3958 39.4399 13.1667 39.9399 12C40.4399 10.8333 41.1066 9.83333 41.9399 9C42.8149 8.125 43.8358 7.4375 45.0024 6.9375C46.1691 6.4375 47.4191 6.1875 48.7524 6.1875ZM54.0649 10.375C53.3566 9.70833 52.5545 9.17708 51.6587 8.78125C50.7629 8.38542 49.7941 8.1875 48.7524 8.1875C47.7108 8.1875 46.7316 8.38542 45.8149 8.78125C44.8983 9.17708 44.0858 9.70833 43.3774 10.375C42.7108 11.0833 42.1795 11.8854 41.7837 12.7812C41.3879 13.6771 41.1899 14.6458 41.1899 15.6875C41.1899 16.7292 41.3879 17.7083 41.7837 18.625C42.1795 19.5417 42.7108 20.3542 43.3774 21.0625C44.0858 21.7292 44.8983 22.2604 45.8149 22.6562C46.7316 23.0521 47.7108 23.25 48.7524 23.25C49.7941 23.25 50.7629 23.0521 51.6587 22.6562C52.5545 22.2604 53.3566 21.7292 54.0649 21.0625C54.7316 20.3542 55.2629 19.5417 55.6587 18.625C56.0545 17.7083 56.2524 16.7292 56.2524 15.6875C56.2524 14.6458 56.0545 13.6771 55.6587 12.7812C55.2629 11.8854 54.7316 11.0833 54.0649 10.375ZM48.7524 42.6875L60.7524 22.375C61.0024 21.875 61.2316 21.3542 61.4399 20.8125C61.6483 20.2708 61.8358 19.7292 62.0024 19.1875C62.1274 18.6042 62.2316 18.0312 62.3149 17.4688C62.3983 16.9062 62.4399 16.3125 62.4399 15.6875C62.4399 13.8125 62.0754 12.0417 61.3462 10.375C60.617 8.70833 59.6483 7.25 58.4399 6C57.1899 4.79167 55.7316 3.82292 54.0649 3.09375C52.3983 2.36458 50.6274 2 48.7524 2C46.8358 2 45.0441 2.36458 43.3774 3.09375C41.7108 3.82292 40.2524 4.79167 39.0024 6C37.7524 7.25 36.7733 8.70833 36.0649 10.375C35.3566 12.0417 35.0024 13.8125 35.0024 15.6875C35.0024 16.3125 35.0337 16.9062 35.0962 17.4688C35.1587 18.0312 35.2733 18.6042 35.4399 19.1875C35.5649 19.7292 35.742 20.2604 35.9712 20.7812C36.2004 21.3021 36.4399 21.8125 36.6899 22.3125V22.375L48.7524 42.6875ZM48.7524 11.125C49.3358 11.125 49.9087 11.25 50.4712 11.5C51.0337 11.75 51.5233 12.0833 51.9399 12.5C52.3566 12.9167 52.6899 13.3958 52.9399 13.9375C53.1899 14.4792 53.3149 15.0625 53.3149 15.6875C53.3149 16.3542 53.1899 16.9583 52.9399 17.5C52.6899 18.0417 52.3566 18.5208 51.9399 18.9375C51.5233 19.3542 51.0441 19.6875 50.5024 19.9375C49.9608 20.1875 49.3774 20.3125 48.7524 20.3125C48.0858 20.3125 47.4816 20.1875 46.9399 19.9375C46.3983 19.6875 45.9191 19.3542 45.5024 18.9375C45.4608 18.9375 45.4399 18.9271 45.4399 18.9062C45.4399 18.8854 45.4399 18.875 45.4399 18.875C45.0233 18.4583 44.7004 17.9792 44.4712 17.4375C44.242 16.8958 44.1274 16.3125 44.1274 15.6875C44.1274 15.0625 44.2524 14.4792 44.5024 13.9375C44.7524 13.3958 45.0858 12.9167 45.5024 12.5C45.5024 12.5 45.5024 12.4896 45.5024 12.4688C45.5024 12.4479 45.5233 12.4375 45.5649 12.4375C45.9816 12.0208 46.4608 11.6979 47.0024 11.4688C47.5441 11.2396 48.1274 11.125 48.7524 11.125ZM50.5649 13.875C50.3149 13.6667 50.0337 13.4896 49.7212 13.3438C49.4087 13.1979 49.0858 13.125 48.7524 13.125C48.3774 13.125 48.0441 13.1875 47.7524 13.3125C47.4608 13.4375 47.1899 13.625 46.9399 13.875C46.9399 13.875 46.9295 13.875 46.9087 13.875C46.8879 13.875 46.8774 13.875 46.8774 13.875C46.6691 14.125 46.492 14.4062 46.3462 14.7188C46.2004 15.0312 46.1274 15.3542 46.1274 15.6875C46.1274 16.0625 46.1899 16.3958 46.3149 16.6875C46.4399 16.9792 46.6274 17.25 46.8774 17.5C46.8774 17.5 46.8774 17.5104 46.8774 17.5312C46.8774 17.5521 46.8774 17.5625 46.8774 17.5625C47.1274 17.7708 47.4087 17.9479 47.7212 18.0938C48.0337 18.2396 48.3774 18.3125 48.7524 18.3125C49.0858 18.3125 49.4087 18.2396 49.7212 18.0938C50.0337 17.9479 50.3149 17.7708 50.5649 17.5625C50.7733 17.3125 50.9504 17.0312 51.0962 16.7188C51.242 16.4062 51.3149 16.0625 51.3149 15.6875C51.3149 15.3542 51.242 15.0312 51.0962 14.7188C50.9504 14.4062 50.7733 14.125 50.5649 13.875Z" fill="#4BAF47"/>
  </g>
  <defs>
    <clipPath id="clip0_1_2184">
      <rect width="64" height="64" fill="white" transform="matrix(1 0 0 -1 0.439941 64)"/>
    </clipPath>
  </defs>
</svg>