<svg
                xmlns="http://www.w3.org/2000/svg"
                width="65"
                height="64"
                viewBox="0 0 65 64"
                fill="none"
              >
                <g clip-path="url(#clip0_1_2170)">
                  <path
                    d="M48.5977 49.0625L47.1602 50.4375L43.7227 47.0625H46.5977L48.5977 49.0625ZM54.1602 49.0625C54.1602 50.7292 53.5768 52.1458 52.4102 53.3125C51.2435 54.4792 49.8268 55.0625 48.1602 55.0625H42.1602V53.0625H48.1602C49.2852 53.0625 50.2331 52.6667 51.0039 51.875C51.7747 51.0833 52.1602 50.1458 52.1602 49.0625C52.1602 48.6875 52.1081 48.3333 52.0039 48C51.8997 47.6667 51.7643 47.3333 51.5977 47V47.0625H53.7852C53.9102 47.3542 54.0039 47.6667 54.0664 48C54.1289 48.3333 54.1602 48.6875 54.1602 49.0625ZM47.1602 50.4375L40.7227 44.0625L47.1602 37.625L48.5977 39.0625L43.5977 44.0625L48.5977 49.0625L47.1602 50.4375ZM8.16016 42.25V44.0625L3.16016 42.0625V40.25L8.16016 42.25ZM8.16016 39.125V40.9375L3.16016 38.9375V37.125L8.16016 39.125ZM31.2227 58.1875L0.160156 44.6875V21.4375L33.0977 3.9375L62.1602 15.375V38.625L56.9102 41.9375L55.8477 40.25L60.1602 37.5V16.75L33.2227 6.125L2.16016 22.625V43.375L31.0977 55.9375L37.2852 52L38.3477 53.6875L31.2227 58.1875ZM31.1602 58.0625C31.0768 58.0625 31.0039 58.0521 30.9414 58.0312C30.8789 58.0104 30.806 57.9792 30.7227 57.9375H30.7852L0.785156 44.9375C0.576823 44.8958 0.420573 44.7917 0.316406 44.625C0.21224 44.4583 0.160156 44.2708 0.160156 44.0625V22.0625C0.160156 21.7708 0.253906 21.5312 0.441406 21.3438C0.628906 21.1562 0.86849 21.0625 1.16016 21.0625C1.24349 21.0625 1.31641 21.0625 1.37891 21.0625C1.44141 21.0625 1.49349 21.0833 1.53516 21.125L31.5352 33.125C31.7018 33.2083 31.8477 33.3333 31.9727 33.5C32.0977 33.6667 32.1602 33.8542 32.1602 34.0625V57.0625C32.1602 57.3125 32.0664 57.5417 31.8789 57.75C31.6914 57.9583 31.4518 58.0625 31.1602 58.0625ZM2.16016 43.375L30.1602 55.5V34.75L2.16016 23.5V43.375ZM31.1602 58.0625C30.8685 58.0625 30.6289 57.9583 30.4414 57.75C30.2539 57.5417 30.1602 57.3125 30.1602 57.0625V34.0625C30.1602 33.8542 30.2018 33.6771 30.2852 33.5312C30.3685 33.3854 30.4935 33.2708 30.6602 33.1875L60.6602 15.1875C60.7435 15.1458 60.8268 15.1146 60.9102 15.0938C60.9935 15.0729 61.0768 15.0625 61.1602 15.0625C61.4518 15.0625 61.6914 15.1562 61.8789 15.3438C62.0664 15.5312 62.1602 15.7708 62.1602 16.0625V38.0625C62.1602 38.2292 62.1185 38.3854 62.0352 38.5312C61.9518 38.6771 61.8477 38.7917 61.7227 38.875L56.9102 41.9375L55.8477 40.25L60.1602 37.5V17.8125L32.1602 34.625V55.25L37.2852 52L38.3477 53.6875L31.7227 57.875C31.6393 57.9167 31.5456 57.9583 31.4414 58C31.3372 58.0417 31.2435 58.0625 31.1602 58.0625ZM19.1602 37.0625C19.0768 37.0625 19.0039 37.0521 18.9414 37.0312C18.8789 37.0104 18.8268 37 18.7852 37L13.7852 35C13.6185 34.9167 13.4727 34.7917 13.3477 34.625C13.2227 34.4583 13.1602 34.2708 13.1602 34.0625V27.25C13.1602 26.9583 13.2539 26.7188 13.4414 26.5312C13.6289 26.3438 13.8685 26.25 14.1602 26.25C14.2435 26.25 14.3164 26.2604 14.3789 26.2812C14.4414 26.3021 14.4935 26.3125 14.5352 26.3125L19.5352 28.3125C19.7018 28.3958 19.8477 28.5208 19.9727 28.6875C20.0977 28.8542 20.1602 29.0417 20.1602 29.25V36.0625C20.1602 36.3125 20.0664 36.5417 19.8789 36.75C19.6914 36.9583 19.4518 37.0625 19.1602 37.0625ZM15.1602 33.375L18.1602 34.5625V29.9375L15.1602 28.75V33.375ZM19.1602 30.25C19.0768 30.25 19.0039 30.2396 18.9414 30.2188C18.8789 30.1979 18.8268 30.1875 18.7852 30.1875L13.7852 28.1875C13.6185 28.1042 13.4727 27.9792 13.3477 27.8125C13.2227 27.6458 13.1602 27.4583 13.1602 27.25C13.1602 27.0833 13.2018 26.9271 13.2852 26.7812C13.3685 26.6354 13.4935 26.5 13.6602 26.375L42.9727 8.25C43.0143 8.20833 43.0872 8.17708 43.1914 8.15625C43.2956 8.13542 43.3893 8.125 43.4727 8.125C43.556 8.125 43.6289 8.125 43.6914 8.125C43.7539 8.125 43.806 8.14583 43.8477 8.1875L48.9102 10.1875C49.0768 10.2292 49.2122 10.3333 49.3164 10.5C49.4206 10.6667 49.4727 10.8542 49.4727 11.0625C49.4727 11.2708 49.431 11.4479 49.3477 11.5938C49.2643 11.7396 49.1602 11.8542 49.0352 11.9375L19.6602 30.125C19.6185 30.1667 19.5456 30.1979 19.4414 30.2188C19.3372 30.2396 19.2435 30.25 19.1602 30.25ZM16.3477 27.0625L19.0352 28.125L46.2852 11.25L43.5977 10.1875L16.3477 27.0625ZM47.1602 60.0625C45.3685 60.0625 43.681 59.7083 42.0977 59C40.5143 58.3333 39.1393 57.4167 37.9727 56.25C36.806 55.0833 35.8685 53.7083 35.1602 52.125C34.4935 50.5417 34.1602 48.8542 34.1602 47.0625C34.1602 45.2708 34.4935 43.5833 35.1602 42C35.8685 40.4167 36.806 39.0312 37.9727 37.8438C39.1393 36.6562 40.5143 35.7292 42.0977 35.0625C43.681 34.3958 45.3685 34.0625 47.1602 34.0625C48.9518 34.0625 50.6393 34.3958 52.2227 35.0625C53.806 35.7292 55.181 36.6562 56.3477 37.8438C57.5143 39.0312 58.4518 40.4167 59.1602 42C59.8268 43.5833 60.1602 45.2708 60.1602 47.0625C60.1602 48.8542 59.8268 50.5417 59.1602 52.125C58.4518 53.7083 57.5143 55.0833 56.3477 56.25C55.181 57.4167 53.806 58.3333 52.2227 59C50.6393 59.7083 48.9518 60.0625 47.1602 60.0625ZM47.1602 36.0625C44.1185 36.0625 41.5247 37.1354 39.3789 39.2812C37.2331 41.4271 36.1602 44.0208 36.1602 47.0625C36.1602 50.1042 37.2331 52.6979 39.3789 54.8438C41.5247 56.9896 44.1185 58.0625 47.1602 58.0625C50.2018 58.0625 52.7956 56.9896 54.9414 54.8438C57.0872 52.6979 58.1602 50.1042 58.1602 47.0625C58.1602 44.0208 57.0872 41.4271 54.9414 39.2812C52.7956 37.1354 50.2018 36.0625 47.1602 36.0625ZM48.1602 55.0625H42.1602V53.0625H48.1602C49.2852 53.0625 50.2331 52.6667 51.0039 51.875C51.7747 51.0833 52.1602 50.1458 52.1602 49.0625C52.1602 47.9375 51.7747 46.9896 51.0039 46.2188C50.2331 45.4479 49.2852 45.0625 48.1602 45.0625H42.1602V43.0625H48.1602C49.8268 43.0625 51.2435 43.6458 52.4102 44.8125C53.5768 45.9792 54.1602 47.3958 54.1602 49.0625C54.1602 50.7292 53.5768 52.1458 52.4102 53.3125C51.2435 54.4792 49.8268 55.0625 48.1602 55.0625Z"
                    fill="#4BAF47"
                  />
                </g>
                <defs>
                  <clipPath id="clip0_1_2170">
                    <rect
                      width="64"
                      height="64"
                      fill="white"
                      transform="matrix(1 0 0 -1 0.160156 64)"
                    />
                  </clipPath>
                </defs>
              </svg>