<svg width="15" height="12" viewBox="0 0 15 12" fill="none" xmlns="http://www.w3.org/2000/svg">
<path d="M13.4243 2.89258C13.4243 2.95638 13.4243 3.02018 13.4243 3.08398C13.4243 3.14779 13.4243 3.21159 13.4243 3.27539C13.4243 4.22331 13.2466 5.18034 12.8911 6.14648C12.5356 7.11263 12.0138 7.98763 11.3257 8.77148C10.6375 9.55534 9.78304 10.1979 8.76221 10.6992C7.75049 11.1914 6.58382 11.4375 5.26221 11.4375C4.86117 11.4375 4.46468 11.4102 4.07275 11.3555C3.68083 11.2917 3.30029 11.2051 2.93115 11.0957C2.56201 10.9863 2.20426 10.8542 1.85791 10.6992C1.51156 10.5352 1.17887 10.3529 0.859863 10.1523C0.978353 10.1615 1.09456 10.1683 1.2085 10.1729C1.32243 10.1774 1.43864 10.1797 1.55713 10.1797C2.22249 10.1797 2.85824 10.0726 3.46436 9.8584C4.07048 9.64421 4.61963 9.3457 5.11182 8.96289C4.48291 8.94466 3.92464 8.7487 3.43701 8.375C2.94938 8.0013 2.61442 7.5319 2.43213 6.9668C2.52327 6.97591 2.61214 6.98503 2.69873 6.99414C2.78532 7.00326 2.87874 7.00781 2.979 7.00781C3.10661 7.00781 3.23421 7.00098 3.36182 6.9873C3.48942 6.97363 3.61247 6.94857 3.73096 6.91211C3.07471 6.77539 2.52783 6.44727 2.09033 5.92773C1.65283 5.4082 1.43408 4.79753 1.43408 4.0957V4.06836C1.62549 4.16862 1.83057 4.25065 2.04932 4.31445C2.26807 4.37826 2.49137 4.41471 2.71924 4.42383C2.33643 4.16862 2.02881 3.83138 1.79639 3.41211C1.56396 2.99284 1.44775 2.53255 1.44775 2.03125C1.44775 1.76693 1.48193 1.514 1.55029 1.27246C1.61865 1.03092 1.71208 0.805339 1.83057 0.595703C2.18604 1.02409 2.58252 1.41602 3.02002 1.77148C3.45752 2.12695 3.92692 2.43457 4.42822 2.69434C4.92952 2.9541 5.46273 3.16146 6.02783 3.31641C6.58382 3.47135 7.15804 3.5625 7.75049 3.58984C7.73226 3.48047 7.71631 3.37109 7.70264 3.26172C7.68896 3.15234 7.68213 3.04297 7.68213 2.93359C7.68213 2.54167 7.75505 2.16797 7.90088 1.8125C8.05583 1.46615 8.26318 1.16309 8.52295 0.90332C8.78271 0.643555 9.08577 0.440755 9.43213 0.294922C9.77848 0.139974 10.1522 0.0625 10.5532 0.0625C10.9634 0.0625 11.3485 0.144531 11.7085 0.308594C12.0685 0.472656 12.3807 0.691406 12.645 0.964844C12.9731 0.910156 13.2899 0.823567 13.5952 0.705078C13.9006 0.586589 14.1899 0.445312 14.4634 0.28125C14.3631 0.609375 14.2036 0.910156 13.9849 1.18359C13.7661 1.45703 13.5063 1.68034 13.2056 1.85352C13.4972 1.82617 13.7821 1.77376 14.0601 1.69629C14.3381 1.61882 14.6047 1.52539 14.8599 1.41602C14.6685 1.69857 14.4497 1.96517 14.2036 2.21582C13.9575 2.46647 13.6978 2.69206 13.4243 2.89258Z" fill="#fff"/>
</svg>
