<svg xmlns="http://www.w3.org/2000/svg" width="41" height="41" viewBox="0 0 41 41" fill="none">
  <g clip-path="url(#clip0_1_2023)">
    <path d="M20.98 0.969238C18.2196 0.969238 15.6284 1.49007 13.2065 2.53174C10.7847 3.59945 8.66878 5.03825 6.85889 6.84814C5.04899 8.65804 3.61019 10.7739 2.54248 13.1958C1.50081 15.6177 0.97998 18.2088 0.97998 20.9692C0.97998 23.7297 1.50081 26.3208 2.54248 28.7427C3.61019 31.1646 5.04899 33.2804 6.85889 35.0903C8.66878 36.9002 10.7847 38.339 13.2065 39.4067C15.6284 40.4484 18.2196 40.9692 20.98 40.9692C23.7404 40.9692 26.3315 40.4484 28.7534 39.4067C31.1753 38.339 33.2912 36.9002 35.1011 35.0903C36.911 33.2804 38.3498 31.1646 39.4175 28.7427C40.4591 26.3208 40.98 23.7297 40.98 20.9692C40.98 18.2088 40.4591 15.6177 39.4175 13.1958C38.3498 10.7739 36.911 8.65804 35.1011 6.84814C33.2912 5.03825 31.1753 3.59945 28.7534 2.53174C26.3315 1.49007 23.7404 0.969238 20.98 0.969238ZM31.0972 16.7114L20.2769 27.5708C20.1206 27.7271 19.9383 27.8442 19.73 27.9224C19.5216 28.0005 19.3133 28.0396 19.105 28.0396C18.8966 28.0396 18.6883 28.0005 18.48 27.9224C18.2716 27.8442 18.0894 27.7271 17.9331 27.5708L12.5034 22.1411C12.1909 21.8286 12.0347 21.438 12.0347 20.9692C12.0347 20.5005 12.1909 20.1099 12.5034 19.7974C12.842 19.4588 13.2391 19.2896 13.6948 19.2896C14.1506 19.2896 14.5347 19.4588 14.8472 19.7974L19.105 24.0161L28.7534 14.3677C29.092 14.0552 29.4891 13.8989 29.9448 13.8989C30.4006 13.8989 30.7847 14.0552 31.0972 14.3677C31.4357 14.7062 31.605 15.1034 31.605 15.5591C31.605 16.0148 31.4357 16.3989 31.0972 16.7114Z" fill="#4BAF47"/>
  </g>
  <defs>
    <clipPath id="clip0_1_2023">
      <rect width="40" height="40" fill="white" transform="matrix(1 0 0 -1 0.97998 40.9692)"/>
    </clipPath>
  </defs>
</svg>