<svg xmlns="http://www.w3.org/2000/svg" width="41" height="41" viewBox="0 0 41 41" fill="none">
  <g clip-path="url(#clip0_1_2033)">
    <path d="M20.98 0.15918C18.2196 0.15918 15.6284 0.680012 13.2065 1.72168C10.7847 2.78939 8.66878 4.22819 6.85889 6.03809C5.04899 7.84798 3.61019 9.96387 2.54248 12.3857C1.50081 14.8076 0.97998 17.3988 0.97998 20.1592C0.97998 22.9196 1.50081 25.5107 2.54248 27.9326C3.61019 30.3545 5.04899 32.4704 6.85889 34.2803C8.66878 36.0902 10.7847 37.529 13.2065 38.5967C15.6284 39.6383 18.2196 40.1592 20.98 40.1592C23.7404 40.1592 26.3315 39.6383 28.7534 38.5967C31.1753 37.529 33.2912 36.0902 35.1011 34.2803C36.911 32.4704 38.3498 30.3545 39.4175 27.9326C40.4591 25.5107 40.98 22.9196 40.98 20.1592C40.98 17.3988 40.4591 14.8076 39.4175 12.3857C38.3498 9.96387 36.911 7.84798 35.1011 6.03809C33.2912 4.22819 31.1753 2.78939 28.7534 1.72168C26.3315 0.680012 23.7404 0.15918 20.98 0.15918ZM31.0972 15.9014L20.2769 26.7607C20.1206 26.917 19.9383 27.0342 19.73 27.1123C19.5216 27.1904 19.3133 27.2295 19.105 27.2295C18.8966 27.2295 18.6883 27.1904 18.48 27.1123C18.2716 27.0342 18.0894 26.917 17.9331 26.7607L12.5034 21.3311C12.1909 21.0186 12.0347 20.6279 12.0347 20.1592C12.0347 19.6904 12.1909 19.2998 12.5034 18.9873C12.842 18.6488 13.2391 18.4795 13.6948 18.4795C14.1506 18.4795 14.5347 18.6488 14.8472 18.9873L19.105 23.2061L28.7534 13.5576C29.092 13.2451 29.4891 13.0889 29.9448 13.0889C30.4006 13.0889 30.7847 13.2451 31.0972 13.5576C31.4357 13.8962 31.605 14.2933 31.605 14.749C31.605 15.2048 31.4357 15.5889 31.0972 15.9014Z" fill="#EEC044"/>
  </g>
  <defs>
    <clipPath id="clip0_1_2033">
      <rect width="40" height="40" fill="white" transform="matrix(1 0 0 -1 0.97998 40.1592)"/>
    </clipPath>
  </defs>
</svg>