<svg xmlns="http://www.w3.org/2000/svg" width="41" height="41" viewBox="0 0 41 41" fill="none">
  <g clip-path="url(#clip0_1_2028)">
    <path d="M20.98 0.569336C18.2196 0.569336 15.6284 1.09017 13.2065 2.13184C10.7847 3.19954 8.66878 4.63835 6.85889 6.44824C5.04899 8.25814 3.61019 10.374 2.54248 12.7959C1.50081 15.2178 0.97998 17.8089 0.97998 20.5693C0.97998 23.3298 1.50081 25.9209 2.54248 28.3428C3.61019 30.7646 5.04899 32.8805 6.85889 34.6904C8.66878 36.5003 10.7847 37.9391 13.2065 39.0068C15.6284 40.0485 18.2196 40.5693 20.98 40.5693C23.7404 40.5693 26.3315 40.0485 28.7534 39.0068C31.1753 37.9391 33.2912 36.5003 35.1011 34.6904C36.911 32.8805 38.3498 30.7646 39.4175 28.3428C40.4591 25.9209 40.98 23.3298 40.98 20.5693C40.98 17.8089 40.4591 15.2178 39.4175 12.7959C38.3498 10.374 36.911 8.25814 35.1011 6.44824C33.2912 4.63835 31.1753 3.19954 28.7534 2.13184C26.3315 1.09017 23.7404 0.569336 20.98 0.569336ZM31.0972 16.3115L20.2769 27.1709C20.1206 27.3271 19.9383 27.4443 19.73 27.5225C19.5216 27.6006 19.3133 27.6396 19.105 27.6396C18.8966 27.6396 18.6883 27.6006 18.48 27.5225C18.2716 27.4443 18.0894 27.3271 17.9331 27.1709L12.5034 21.7412C12.1909 21.4287 12.0347 21.0381 12.0347 20.5693C12.0347 20.1006 12.1909 19.71 12.5034 19.3975C12.842 19.0589 13.2391 18.8896 13.6948 18.8896C14.1506 18.8896 14.5347 19.0589 14.8472 19.3975L19.105 23.6162L28.7534 13.9678C29.092 13.6553 29.4891 13.499 29.9448 13.499C30.4006 13.499 30.7847 13.6553 31.0972 13.9678C31.4357 14.3063 31.605 14.7035 31.605 15.1592C31.605 15.6149 31.4357 15.999 31.0972 16.3115Z" fill="#C5CE38"/>
  </g>
  <defs>
    <clipPath id="clip0_1_2028">
      <rect width="40" height="40" fill="white" transform="matrix(1 0 0 -1 0.97998 40.5693)"/>
    </clipPath>
  </defs>
</svg>