<svg xmlns="http://www.w3.org/2000/svg" width="17" height="17" viewBox="0 0 17 17" fill="none">
  <g clip-path="url(#clip0_1_1971)">
    <path d="M16.1118 6.83011C16.0597 6.66344 15.9685 6.52802 15.8383 6.42386C15.7081 6.31969 15.5597 6.25719 15.393 6.23636L10.768 5.83011L8.93989 1.54886C8.87739 1.39261 8.77322 1.26761 8.62739 1.17386C8.48155 1.08011 8.3253 1.03323 8.15864 1.03323C7.99197 1.03323 7.83572 1.08011 7.68989 1.17386C7.54405 1.26761 7.43989 1.39261 7.37739 1.54886L5.54926 5.83011L0.924262 6.23636C0.757595 6.25719 0.609158 6.31969 0.47895 6.42386C0.348741 6.52802 0.257595 6.66344 0.205512 6.83011C0.153429 6.98636 0.14822 7.14781 0.189887 7.31448C0.231554 7.48115 0.320095 7.62177 0.455512 7.73636L3.93989 10.7989L2.90864 15.3301C2.87739 15.4968 2.89041 15.6582 2.9477 15.8145C3.00499 15.9707 3.10135 16.1009 3.23676 16.2051C3.30968 16.2572 3.39041 16.2963 3.47895 16.3223C3.56749 16.3483 3.65343 16.3614 3.73676 16.3614C3.80968 16.3614 3.8852 16.3509 3.96332 16.3301C4.04145 16.3093 4.11176 16.2832 4.17426 16.252L8.15864 13.8614L12.143 16.252C12.2888 16.3353 12.4451 16.3744 12.6118 16.3692C12.7784 16.364 12.9347 16.3093 13.0805 16.2051C13.2159 16.1009 13.3123 15.9707 13.3696 15.8145C13.4269 15.6582 13.4399 15.4968 13.4086 15.3301L12.3774 10.7989L15.8618 7.73636C15.9972 7.62177 16.0857 7.48115 16.1274 7.31448C16.1691 7.14781 16.1638 6.98636 16.1118 6.83011Z" fill="#EEC044"/>
  </g>
  <defs>
    <clipPath id="clip0_1_1971">
      <rect width="16" height="16" fill="white" transform="matrix(1 0 0 -1 0.189941 16.6895)"/>
    </clipPath>
  </defs>
</svg>